<svg width="153" height="63" viewBox="0 0 153 63" fill="none" xmlns="http://www.w3.org/2000/svg">
<path d="M51.0685 42.7181C48.7637 40.4454 46.5366 37.9509 44.7641 35.4324C42.5561 32.2951 40.5974 28.4942 40.8376 24.7443C40.9662 22.7358 41.7312 20.7137 43.4086 18.9631C45.0536 17.2463 47.303 16.0737 49.87 15.3153C52.4979 14.539 55.092 14.3329 57.4934 14.8608C59.9085 15.3917 61.805 16.595 63.1897 18.1529C65.862 21.1597 66.6315 25.4329 66.3563 29.4658C66.0881 33.3949 64.8025 37.6526 62.5553 41.5038C64.2463 42.9028 65.8159 44.0718 67.062 44.8988C73.9196 49.4501 82.7846 52.4023 90.8685 52.2303C94.8528 52.1456 98.5513 51.3082 101.778 49.6233C104.282 48.3162 106.64 46.4275 108.68 43.7716C105.781 41.3545 102.819 38.5554 100.274 35.5127C97.3117 31.9699 94.825 27.9895 93.7448 23.8067C93.0719 21.201 92.523 16.1364 94.0756 11.6696C94.8714 9.38032 96.3556 6.8659 99.1174 5.09607C101.995 3.2524 105.549 2.66366 109.441 3.16757C114.107 3.77159 117.327 6.41187 119.386 9.59131C121.425 12.7402 122.519 16.6751 122.947 20.6767C123.672 27.4675 122.56 35.3045 119.781 41.5603C126.671 46.1579 135.793 47.63 146.236 47.4165C147.321 47.3943 148.402 47.7159 149.231 48.4126C150.086 49.1311 150.639 50.2426 150.492 51.5174C150.352 52.7341 149.627 53.6757 148.82 54.2716C148.001 54.8761 146.962 55.2386 145.875 55.2608C135.008 55.483 124.141 54.0765 115.344 48.712C112.689 51.9414 109.537 54.4554 106.019 56.2922C101.153 58.833 95.8112 59.9619 90.516 60.0745C80.0398 60.2973 69.3855 56.5679 61.4223 51.2828C60.1798 50.4581 58.7175 49.3848 57.1598 48.135C55.3917 49.705 53.3481 51.0772 51.021 52.1245C39.1357 57.4733 27.8263 56.4464 19.1459 51.8617C10.6122 47.3546 4.6109 39.4319 2.70674 30.8428C2.42967 29.593 2.87974 28.4516 3.5531 27.6553C4.22517 26.8605 5.1843 26.3076 6.2426 26.073C7.30091 25.8384 8.40385 25.9341 9.34881 26.3704C10.2956 26.8075 11.1859 27.6518 11.463 28.9015C12.9253 35.4976 17.5973 41.6351 24.0797 45.0589C30.4133 48.4041 38.4617 49.1804 47.3131 45.1969C48.6621 44.5898 49.9216 43.7507 51.0685 42.7181ZM102.446 21.6344C103.669 26.3714 107.786 31.4238 112.68 35.8735C114.018 31.5159 114.555 26.431 114.066 21.8589C113.709 18.5181 112.833 15.7357 111.584 13.8069C110.359 11.9141 108.977 11.1118 107.586 10.9318C105.435 10.6533 104.515 11.0703 104.12 11.3237C103.612 11.6492 103.032 12.3152 102.593 13.5792C101.674 16.2239 101.966 19.778 102.446 21.6344ZM52.4111 30.9877C53.4409 32.451 54.6882 33.9448 56.0469 35.4032C56.8496 33.3958 57.323 31.3387 57.4529 29.4352C57.6628 26.3594 56.9532 24.2545 56.0539 23.2426C55.6543 22.7931 55.2428 22.5761 54.8086 22.4806C54.3615 22.3824 53.5693 22.3445 52.2579 22.732C50.8861 23.1373 50.3281 23.5713 50.1105 23.7983C49.9244 23.9925 49.7746 24.2498 49.7429 24.7456C49.662 26.0089 50.4043 28.1363 52.4111 30.9877Z" fill="#8FFDC8" stroke="black" stroke-width="4" stroke-linecap="round"/>
</svg>
