<svg width="85" height="85" viewBox="0 0 85 85" fill="none" xmlns="http://www.w3.org/2000/svg">
<path d="M65.8595 31.1704L65.8552 31.1673C56.2833 24.3948 49.1789 14.5694 46.9729 5.59796C46.4816 3.60004 44.7088 2 42.479 2C40.2855 2 38.516 3.55425 38.0127 5.53756C36.9204 9.84101 34.8876 14.0821 31.8556 18.4616L31.8533 18.4649C25.4303 27.7828 15.5907 34.8019 5.44363 37.7495C3.4778 38.3206 2 40.1113 2 42.2709C2 44.483 3.54363 46.2803 5.53411 46.8317C10.2789 48.146 15.1448 50.6373 19.9955 54.2966L20 54.3C30.376 62.082 36.1031 71.5167 38.0265 79.2431C38.52 81.2255 40.2824 82.8 42.488 82.8C44.7171 82.8 46.4792 81.1939 46.965 79.206C47.8131 75.7359 49.4834 71.9245 52.0918 67.7667C57.8682 58.6534 69.2208 49.6839 79.296 46.8282C81.259 46.2718 82.8 44.4939 82.8 42.2887C82.8 40.1059 81.2844 38.319 79.3076 37.7705C74.7612 36.5092 70.2564 34.299 65.8595 31.1704Z" fill="#FDF65D" stroke="black" stroke-width="4"/>
</svg>
