<svg width="92" height="103" viewBox="0 0 92 103" fill="none" xmlns="http://www.w3.org/2000/svg">
<path d="M55.1077 73.8636C53.8561 74.3955 52.5542 74.8132 51.2 75.1149V60.8467L63.5002 67.9505C63.2999 68.1647 63.0951 68.3765 62.8858 68.5858C60.6696 70.802 58.0821 72.561 55.1077 73.8636ZM70.8142 76.4142C71.7043 75.5241 72.5414 74.5942 73.3253 73.6248L81.2945 78.2273C83.6906 79.6111 86.755 78.7858 88.132 76.3859L88.6459 75.4901C90.0175 73.0997 89.1962 70.0502 86.8097 68.672L78.851 64.0756C80.4195 60.0461 81.2 55.7825 81.2 51.3C81.2 46.8175 80.4195 42.5539 78.851 38.5244L86.8097 33.928C89.1962 32.5498 90.0175 29.5003 88.6459 27.1099L88.132 26.2141C86.755 23.8142 83.6906 22.9889 81.2945 24.3727L73.3253 28.9752C72.5414 28.0058 71.7043 27.0759 70.8142 26.1858C67.5632 22.9347 63.7815 20.3918 59.4842 18.5602C56.8258 17.4271 54.0629 16.644 51.2 16.2089V7C51.2 4.23858 48.9614 2 46.2 2H45.2C42.4386 2 40.2 4.23857 40.2 6.99999V16.2089C37.3371 16.644 34.5742 17.4271 31.9158 18.5602C27.6185 20.3918 23.8368 22.9347 20.5858 26.1858C19.6957 27.0759 18.8586 28.0058 18.0747 28.9752L10.1055 24.3727C7.70941 22.9889 4.64506 23.8142 3.26803 26.2141L2.75406 27.1099C1.38253 29.5003 2.20381 32.5498 4.5903 33.928L12.549 38.5244C10.9805 42.5539 10.2 46.8175 10.2 51.3C10.2 55.7825 10.9805 60.0461 12.549 64.0756L4.5903 68.672C2.2038 70.0502 1.38253 73.0997 2.75406 75.4901L3.26803 76.3859C4.64506 78.7858 7.70942 79.6111 10.1055 78.2273L18.0747 73.6248C18.8586 74.5942 19.6957 75.5241 20.5858 76.4142C23.8368 79.6653 27.6185 82.2082 31.9158 84.0398C34.5742 85.1729 37.3371 85.956 40.2 86.3911V95.6C40.2 98.3614 42.4386 100.6 45.2 100.6H46.2C48.9614 100.6 51.2 98.3614 51.2 95.6V86.3911C54.0629 85.956 56.8258 85.1729 59.4842 84.0398C63.7815 82.2082 67.5632 79.6653 70.8142 76.4142ZM56.7301 51.3L69.0398 44.1907C69.744 46.4106 70.1 48.777 70.1 51.3C70.1 53.8025 69.7497 56.1722 69.0543 58.4176L56.7301 51.3ZM40.2 60.8467V75.1219C38.8192 74.8199 37.484 74.4 36.1927 73.8636C33.2922 72.5645 30.7022 70.8073 28.4143 68.5856C28.2211 68.3867 28.0315 68.1855 27.8453 67.9819L40.2 60.8467ZM62.9053 34.1335C63.0898 34.313 63.2709 34.495 63.4486 34.6793L51.2 41.7533V27.5168C52.5454 27.833 53.8394 28.2699 55.0841 28.826L55.1073 28.8364L55.1308 28.8461C58.083 30.0762 60.6566 31.8233 62.8665 34.0947L62.8857 34.1143L62.9053 34.1335ZM36.2016 28.8323C37.4906 28.2684 38.8227 27.8271 40.2 27.5095V41.7533L27.8964 34.6476C28.0662 34.4675 28.2388 34.2897 28.4142 34.1142C30.7043 31.8242 33.2913 30.0709 36.1831 28.8403L36.1924 28.8364L36.2016 28.8323ZM21.3 51.3C21.3 48.7667 21.6406 46.3911 22.3136 44.1638L34.6699 51.3L22.2997 58.4442C21.6351 56.1914 21.3 53.8127 21.3 51.3Z" fill="#D7C87E" stroke="black" stroke-width="4"/>
</svg>
