<svg width="96" height="92" viewBox="0 0 96 92" fill="none" xmlns="http://www.w3.org/2000/svg">
<path d="M26.7824 85.694L26.8152 85.7084L26.8485 85.7217C29.2843 86.6919 31.7749 86.9973 34.284 86.5999L50.75 83.992C52.3864 83.7328 53.5029 82.1961 53.2437 80.5596L52.1409 73.5965C52.2346 73.8586 52.3654 74.1093 52.532 74.3404L62.7694 88.5407C63.4315 89.459 64.5541 89.9264 65.6723 89.7493L68.4402 89.3109C70.0767 89.0518 71.1932 87.515 70.934 85.8786L70.1486 80.9196L75.1547 80.1267C77.5792 79.7427 79.7626 78.6896 81.6814 77.0253C83.6896 75.3521 85.153 73.2962 86.0381 70.8787L92.4641 54.0751L92.4836 54.0239L92.5004 53.9718C92.8688 52.8235 93.1223 51.642 93.2618 50.4296C93.4924 49.0327 93.5056 47.6498 93.2901 46.2897C93.1053 45.1228 92.8247 44.0385 92.4345 43.0502C92.0173 41.9361 91.435 40.9318 90.6779 40.0584L80.3416 26.9883C79.2984 25.6691 77.3747 25.4651 76.078 26.5362L63.9173 36.5808C62.6483 37.6291 62.4608 39.5041 63.4972 40.7828L77.5541 58.1263L66.808 59.8283L66.0226 54.8693C65.7634 53.2328 64.2267 52.1163 62.5902 52.3755L59.8247 52.8135C58.7028 52.9912 57.7774 53.7873 57.4342 54.8701L52.1058 71.6795C52.0208 71.9476 51.9749 72.223 51.9668 72.4978L50.8418 65.3945C50.5826 63.758 49.0459 62.6415 47.4094 62.9007L25.1568 66.4252L28.9062 56.3124L33.7074 58.1567C35.25 58.7493 36.9814 57.9828 37.5797 56.4423L38.5838 53.8566C38.9952 52.7974 38.7728 51.5968 38.0096 50.7552L26.1196 37.6444C25.4783 36.9372 24.5386 36.5775 23.589 36.6756L5.92359 38.5011C4.80377 38.6169 3.843 39.3498 3.43545 40.3992L2.43394 42.9781C1.82978 44.5338 2.61137 46.2835 4.17319 46.8717L8.81144 48.6183L7.10159 53.1842L7.09871 53.192C6.69989 54.2706 6.42157 55.3853 6.26322 56.5334L6.25319 56.6061L6.24851 56.6794C6.18134 57.7331 6.23842 58.8086 6.41164 59.9023C6.6336 61.3037 7.0077 62.6088 7.54948 63.8033L7.58385 63.8791L7.62441 63.9518C8.23218 65.0409 8.9412 66.1045 9.74792 67.1428L9.75319 67.1495L9.75852 67.1563L20.7518 81.0572C20.7529 81.0585 20.754 81.0599 20.7551 81.0613C22.3388 83.0835 24.361 84.6276 26.7824 85.694ZM21.8619 14.5003L21.8618 14.5003L21.8578 14.5109L15.8886 30.0726C15.2904 31.6321 16.0812 33.3799 17.6475 33.9602L32.24 39.3662C33.7862 39.939 35.505 39.1565 36.0882 37.6142L44.0669 16.5165L50.9891 25.0691L47.1301 28.1537C45.8265 29.1957 45.6238 31.1013 46.6791 32.3941L48.4248 34.5327C49.1426 35.4121 50.2953 35.811 51.4031 35.5634L68.4664 31.75C69.3713 31.5477 70.1319 30.9384 70.5267 30.0993L78.0725 14.0602C78.5773 12.9872 78.4027 11.7175 77.627 10.8206L75.7712 8.67499C74.7049 7.44217 72.8494 7.28629 71.5923 8.32395L67.6898 11.5454L64.5647 7.76605C63.0368 5.75486 60.9631 4.38678 58.441 3.64064C56.0332 2.79429 53.5451 2.57317 51.0074 2.97511L33.2628 5.78557C30.7953 6.17639 28.5029 7.16741 26.4 8.7155C24.3101 10.2018 22.7828 12.1395 21.8619 14.5003Z" fill="#8FFDC8" stroke="black" stroke-width="4"/>
</svg>
