<svg width="163" height="163" viewBox="0 0 163 163" fill="none" xmlns="http://www.w3.org/2000/svg">
<mask id="path-1-inside-1_3_26" fill="white">
<path d="M163 81.5C163 126.511 126.511 163 81.5 163C36.4888 163 0 126.511 0 81.5C0 36.4888 36.4888 0 81.5 0C126.511 0 163 36.4888 163 81.5ZM24.9719 81.5C24.9719 112.72 50.2804 138.028 81.5 138.028C112.72 138.028 138.028 112.72 138.028 81.5C138.028 50.2804 112.72 24.9719 81.5 24.9719C50.2804 24.9719 24.9719 50.2804 24.9719 81.5Z"/>
</mask>
<path d="M163 81.5C163 126.511 126.511 163 81.5 163C36.4888 163 0 126.511 0 81.5C0 36.4888 36.4888 0 81.5 0C126.511 0 163 36.4888 163 81.5ZM24.9719 81.5C24.9719 112.72 50.2804 138.028 81.5 138.028C112.72 138.028 138.028 112.72 138.028 81.5C138.028 50.2804 112.72 24.9719 81.5 24.9719C50.2804 24.9719 24.9719 50.2804 24.9719 81.5Z" fill="#FA8383" stroke="black" stroke-width="8" mask="url(#path-1-inside-1_3_26)"/>
</svg>
