<svg width="69" height="123" viewBox="0 0 69 123" fill="none" xmlns="http://www.w3.org/2000/svg">
<mask id="path-1-outside-1_4_11" maskUnits="userSpaceOnUse" x="7.15256e-07" y="-0.400003" width="69" height="123" fill="black">
<rect fill="white" x="7.15256e-07" y="-0.400003" width="69" height="123"/>
<path d="M64.9 59.5C64.9 48.9 62 43.2 56 43.2C54.5 43.2 54.3 43.1 54 42.2C52.9 39 50.5 37.3 47.1 37.3C45.2 37.3 43.7 38.3 42.6 38.3C41.9 38.3 41.5 37.8 41.1 36.9C39.8 34 37.9 32.6 34.7 32.6C34.4267 32.6 34.1625 32.6052 33.9064 32.6161C31.5694 32.7161 28.6852 31.2144 28.587 28.8774C28.5336 27.6063 28.5 26.3115 28.5 25C28.5 20.8 28.8 16.1 28.8 13.8C28.8 7.29999 26.6 3.99998 21.9 3.99998C17.1 3.99998 14.8 7.49999 13.8 15.7C13.3 19.8 12.6 25.6 12.1 30.2C11.8305 32.8052 11.6417 35.4104 11.4611 38.0156C11.4211 38.5928 11.2044 39.1401 10.9127 39.6399C10.4936 40.3579 10.1178 41.2289 9.9 42.1C9.4 43.9 8.4 47.4 6.6 51.8C4.9 56 4 61.6 4 68.5C4 74.5 5.6 78.5 10.5 84.7C15 90.4 15.2 91.7 15.2 95.2C15.2 96.3917 15.0336 98.7483 14.99 99.9974C14.9716 100.524 15.2014 100.99 15.6234 101.306C19.4056 104.137 27.1151 106.1 34.2 106.1C43.3018 106.1 49.9524 104.579 53.9187 101.536C54.5723 101.034 54.9 100.233 54.9 99.4096L54.9 94.4087C54.9 93.7542 55.1174 93.1204 55.4973 92.5874C61.9792 83.4929 64.9 70.1774 64.9 59.5ZM61.5 59.5C61.5 71.8146 57.7976 83.9441 51.9957 91.347C51.5568 91.9069 51.3 92.5906 51.3 93.302V97.4074C51.3 98.4033 50.8146 99.353 49.9274 99.8055C46.4494 101.579 41.2069 102.5 34.2 102.5C29.2516 102.5 23.9393 101.408 20.3124 99.8455C19.2414 99.384 18.6677 98.2571 18.7337 97.0928C18.7733 96.3936 18.8 95.7167 18.8 95.2C18.8 90.7 18.1 88.4 13.4 82.5C8.9 76.9 7.6 73.7 7.6 68.5C7.6 62.1 8.4 56.9 9.9 53.2C11.8 48.6 12.9 44.8 13.4 43C13.6851 41.9547 14.4217 40.7288 14.7517 40.6094C14.7776 40.6001 14.8 40.5776 14.8 40.55V40.55C14.8 40.5224 14.8224 40.5 14.85 40.5H15.8C19.5 40.5 21.2 43.1 21.2 45.8C21.2 49.1418 19.8713 56.8682 18.676 60.2614C18.3556 61.1708 18.413 62.3771 19.0535 63.0977V63.0977C19.7297 63.8584 20.8701 63.8464 21.3097 62.9283C21.4961 62.5389 21.68 62.0991 21.8563 61.6173C22.1713 60.7564 23.2196 60.3762 23.9686 60.9046V60.9046C24.4912 61.2734 24.6392 61.9149 24.4307 62.5196C24.008 63.7453 23.7 64.9226 23.7 66.1C23.7 70.2 26.6 72.4 30 72.4V72.4C31.5146 72.4 33.0308 73.4031 33.8858 74.6533C34.2064 75.1221 34.5943 75.5367 35.0373 75.8881C35.5067 76.2605 35.9559 76.6817 36.1673 77.2423C36.7837 78.8772 37 80.8222 37 83.2C37 83.852 36.9748 84.7053 36.9119 85.5327C36.8282 86.6337 37.6883 87.7 38.7925 87.7V87.7C39.5609 87.7 40.2357 87.1772 40.3534 86.4179C40.5073 85.4251 40.6 84.2894 40.6 83.2C40.6 82.0806 40.5526 81.0323 40.4348 80.0436C40.2536 78.522 41.4397 77.0199 42.668 76.1039V76.1039C42.7879 76.0145 42.8479 75.9428 42.9396 75.8247C43.401 75.2308 43.954 74.3814 44.5512 73.3711C45.4893 71.7841 47.7564 71.5 49.6 71.5V71.5C50.1682 71.5 50.8023 71.4341 51.2884 71.3023C51.4989 71.2452 51.6913 71.14 51.8669 71.0105C54.0155 69.4265 56.5842 66.1397 58.6 62.3C59.1939 61.1492 59.6776 60.1362 60.0767 59.2355C60.3599 58.5963 61.5 58.8009 61.5 59.5V59.5ZM58.2 110.3V102.8C58.2 101.3 57.3 100.8 56.2 100.8V100.8C56.0094 100.8 55.9301 101.075 56.0669 101.208C56.3656 101.497 56.5 101.832 56.5 102.3C56.5 107.6 44.1 109.4 34.9 109.4C25.9 109.4 13.4 107.9 13.4 102.3C13.4 101.663 13.4827 101.358 13.949 100.931C13.999 100.886 13.9677 100.8 13.9 100.8V100.8C12.4 100.8 11.5 101.6 11.5 102.8L11.5 110.3C11.5 116.7 25.8 118.6 34.9 118.6C44.1 118.6 58.2 116.8 58.2 110.3ZM26.6874 46.5079C27.6094 47.6978 28.6401 49.1158 28.3304 50.5888C27.5594 54.2557 26.5964 56.5949 26.1027 57.9923C26.1009 57.9975 26.1 58.0028 26.1 58.0084V58.0084C26.1 58.0475 26.0564 58.0709 26.0238 58.0492C25.4125 57.6417 24.7999 57.2356 24.1547 56.8621C23.6613 56.5765 23.3915 56.009 23.5113 55.4516C24.2927 51.8188 24.8 47.9907 24.8 45.6C24.8 41 21.5 37 15.7 37V37C15.4312 37 15.2201 36.7696 15.242 36.5017C15.415 34.3832 15.5145 32.3695 15.7 30.7C16.2 25.7 16.8 20.2 17.4 16.2C18.4 9.69998 19.4 7.59999 21.9 7.59999C24.2 7.59999 25.2 8.99999 25.2 13.8C25.2 16 24.9 20.7 24.9 25C24.9 28.7694 25.2737 33.473 25.4793 37.3953C25.4933 37.664 25.4678 37.9325 25.4198 38.1972C25.2733 39.0047 25.2 39.9593 25.2 41.5C25.2 43.3641 25.6958 45.2281 26.6874 46.5079ZM40.3 44.5C40.3 47.1 39.6 52.2 38.2 56.1C36.1587 61.8688 34.0387 65.5109 32.539 67.5855C32.1963 68.0595 31.7093 68.4133 31.151 68.5876C30.6528 68.7432 30.048 68.9 29.6 68.9C27.7 68.9 27.1 67.4 27 66.3C26.7 64.1 28.6 61.4 29.4 58.9C30.5425 55.8805 31.6184 52.9277 32.3559 48.411C32.6435 46.6504 30.9338 45.3633 29.7404 44.0373C29.0627 43.2841 28.7 42.0685 28.7 40.2C28.7 39.9033 28.7 39.5713 28.7209 39.2042C28.751 38.6756 28.9592 38.1658 29.3479 37.8063C30.83 36.435 32.8759 36.2 35 36.2C36.4 36.2 36.7 36.6 38.1 38.8C39.7 41.4 40.3 42.9 40.3 44.5ZM51.4 46.1C51.4 49.9 49.9 54.3 47.6 60.2C46.0114 64.3118 42.9381 70.3448 41.3998 72.668C41.2073 72.9587 40.9559 73.2081 40.6414 73.3586C40.0898 73.6225 39.4153 73.8 38.8 73.8C37.1 73.8 35.5 72.7 35.5 70.9C35.5 70.2836 35.6551 69.6672 35.8969 68.9826C35.9636 68.794 36.0535 68.615 36.1583 68.4447C38.1103 65.2731 40.1395 61.0788 41.6 56.6C43 52.3 43.9 46.3 43.9 44V44C43.9 42.4723 44.5562 40.8102 46.0695 40.6011C46.5293 40.5375 47.0099 40.5 47.5 40.5C50.3 40.5 51.4 43 51.4 46.1ZM59.1 49.9C59.1 56 57.5 58.1 55.5 61.7C54.2391 63.9695 52.5544 66.1684 51.1583 67.4651C50.6919 67.8984 50.0323 68.0851 49.4369 67.8598V67.8598C48.4148 67.473 48.2326 66.2418 48.6948 65.2515C49.3766 63.7904 49.9911 62.3631 50.5 61.2C52 57.5 54.5 52.5 54.5 47V46.9145C54.5 46.5379 54.7234 46.2 55.1 46.2V46.2C56.6 46.2 59.1 46.7 59.1 49.9Z"/>
</mask>
<path d="M64.9 59.5C64.9 48.9 62 43.2 56 43.2C54.5 43.2 54.3 43.1 54 42.2C52.9 39 50.5 37.3 47.1 37.3C45.2 37.3 43.7 38.3 42.6 38.3C41.9 38.3 41.5 37.8 41.1 36.9C39.8 34 37.9 32.6 34.7 32.6C34.4267 32.6 34.1625 32.6052 33.9064 32.6161C31.5694 32.7161 28.6852 31.2144 28.587 28.8774C28.5336 27.6063 28.5 26.3115 28.5 25C28.5 20.8 28.8 16.1 28.8 13.8C28.8 7.29999 26.6 3.99998 21.9 3.99998C17.1 3.99998 14.8 7.49999 13.8 15.7C13.3 19.8 12.6 25.6 12.1 30.2C11.8305 32.8052 11.6417 35.4104 11.4611 38.0156C11.4211 38.5928 11.2044 39.1401 10.9127 39.6399C10.4936 40.3579 10.1178 41.2289 9.9 42.1C9.4 43.9 8.4 47.4 6.6 51.8C4.9 56 4 61.6 4 68.5C4 74.5 5.6 78.5 10.5 84.7C15 90.4 15.2 91.7 15.2 95.2C15.2 96.3917 15.0336 98.7483 14.99 99.9974C14.9716 100.524 15.2014 100.99 15.6234 101.306C19.4056 104.137 27.1151 106.1 34.2 106.1C43.3018 106.1 49.9524 104.579 53.9187 101.536C54.5723 101.034 54.9 100.233 54.9 99.4096L54.9 94.4087C54.9 93.7542 55.1174 93.1204 55.4973 92.5874C61.9792 83.4929 64.9 70.1774 64.9 59.5ZM61.5 59.5C61.5 71.8146 57.7976 83.9441 51.9957 91.347C51.5568 91.9069 51.3 92.5906 51.3 93.302V97.4074C51.3 98.4033 50.8146 99.353 49.9274 99.8055C46.4494 101.579 41.2069 102.5 34.2 102.5C29.2516 102.5 23.9393 101.408 20.3124 99.8455C19.2414 99.384 18.6677 98.2571 18.7337 97.0928C18.7733 96.3936 18.8 95.7167 18.8 95.2C18.8 90.7 18.1 88.4 13.4 82.5C8.9 76.9 7.6 73.7 7.6 68.5C7.6 62.1 8.4 56.9 9.9 53.2C11.8 48.6 12.9 44.8 13.4 43C13.6851 41.9547 14.4217 40.7288 14.7517 40.6094C14.7776 40.6001 14.8 40.5776 14.8 40.55V40.55C14.8 40.5224 14.8224 40.5 14.85 40.5H15.8C19.5 40.5 21.2 43.1 21.2 45.8C21.2 49.1418 19.8713 56.8682 18.676 60.2614C18.3556 61.1708 18.413 62.3771 19.0535 63.0977V63.0977C19.7297 63.8584 20.8701 63.8464 21.3097 62.9283C21.4961 62.5389 21.68 62.0991 21.8563 61.6173C22.1713 60.7564 23.2196 60.3762 23.9686 60.9046V60.9046C24.4912 61.2734 24.6392 61.9149 24.4307 62.5196C24.008 63.7453 23.7 64.9226 23.7 66.1C23.7 70.2 26.6 72.4 30 72.4V72.4C31.5146 72.4 33.0308 73.4031 33.8858 74.6533C34.2064 75.1221 34.5943 75.5367 35.0373 75.8881C35.5067 76.2605 35.9559 76.6817 36.1673 77.2423C36.7837 78.8772 37 80.8222 37 83.2C37 83.852 36.9748 84.7053 36.9119 85.5327C36.8282 86.6337 37.6883 87.7 38.7925 87.7V87.7C39.5609 87.7 40.2357 87.1772 40.3534 86.4179C40.5073 85.4251 40.6 84.2894 40.6 83.2C40.6 82.0806 40.5526 81.0323 40.4348 80.0436C40.2536 78.522 41.4397 77.0199 42.668 76.1039V76.1039C42.7879 76.0145 42.8479 75.9428 42.9396 75.8247C43.401 75.2308 43.954 74.3814 44.5512 73.3711C45.4893 71.7841 47.7564 71.5 49.6 71.5V71.5C50.1682 71.5 50.8023 71.4341 51.2884 71.3023C51.4989 71.2452 51.6913 71.14 51.8669 71.0105C54.0155 69.4265 56.5842 66.1397 58.6 62.3C59.1939 61.1492 59.6776 60.1362 60.0767 59.2355C60.3599 58.5963 61.5 58.8009 61.5 59.5V59.5ZM58.2 110.3V102.8C58.2 101.3 57.3 100.8 56.2 100.8V100.8C56.0094 100.8 55.9301 101.075 56.0669 101.208C56.3656 101.497 56.5 101.832 56.5 102.3C56.5 107.6 44.1 109.4 34.9 109.4C25.9 109.4 13.4 107.9 13.4 102.3C13.4 101.663 13.4827 101.358 13.949 100.931C13.999 100.886 13.9677 100.8 13.9 100.8V100.8C12.4 100.8 11.5 101.6 11.5 102.8L11.5 110.3C11.5 116.7 25.8 118.6 34.9 118.6C44.1 118.6 58.2 116.8 58.2 110.3ZM26.6874 46.5079C27.6094 47.6978 28.6401 49.1158 28.3304 50.5888C27.5594 54.2557 26.5964 56.5949 26.1027 57.9923C26.1009 57.9975 26.1 58.0028 26.1 58.0084V58.0084C26.1 58.0475 26.0564 58.0709 26.0238 58.0492C25.4125 57.6417 24.7999 57.2356 24.1547 56.8621C23.6613 56.5765 23.3915 56.009 23.5113 55.4516C24.2927 51.8188 24.8 47.9907 24.8 45.6C24.8 41 21.5 37 15.7 37V37C15.4312 37 15.2201 36.7696 15.242 36.5017C15.415 34.3832 15.5145 32.3695 15.7 30.7C16.2 25.7 16.8 20.2 17.4 16.2C18.4 9.69998 19.4 7.59999 21.9 7.59999C24.2 7.59999 25.2 8.99999 25.2 13.8C25.2 16 24.9 20.7 24.9 25C24.9 28.7694 25.2737 33.473 25.4793 37.3953C25.4933 37.664 25.4678 37.9325 25.4198 38.1972C25.2733 39.0047 25.2 39.9593 25.2 41.5C25.2 43.3641 25.6958 45.2281 26.6874 46.5079ZM40.3 44.5C40.3 47.1 39.6 52.2 38.2 56.1C36.1587 61.8688 34.0387 65.5109 32.539 67.5855C32.1963 68.0595 31.7093 68.4133 31.151 68.5876C30.6528 68.7432 30.048 68.9 29.6 68.9C27.7 68.9 27.1 67.4 27 66.3C26.7 64.1 28.6 61.4 29.4 58.9C30.5425 55.8805 31.6184 52.9277 32.3559 48.411C32.6435 46.6504 30.9338 45.3633 29.7404 44.0373C29.0627 43.2841 28.7 42.0685 28.7 40.2C28.7 39.9033 28.7 39.5713 28.7209 39.2042C28.751 38.6756 28.9592 38.1658 29.3479 37.8063C30.83 36.435 32.8759 36.2 35 36.2C36.4 36.2 36.7 36.6 38.1 38.8C39.7 41.4 40.3 42.9 40.3 44.5ZM51.4 46.1C51.4 49.9 49.9 54.3 47.6 60.2C46.0114 64.3118 42.9381 70.3448 41.3998 72.668C41.2073 72.9587 40.9559 73.2081 40.6414 73.3586C40.0898 73.6225 39.4153 73.8 38.8 73.8C37.1 73.8 35.5 72.7 35.5 70.9C35.5 70.2836 35.6551 69.6672 35.8969 68.9826C35.9636 68.794 36.0535 68.615 36.1583 68.4447C38.1103 65.2731 40.1395 61.0788 41.6 56.6C43 52.3 43.9 46.3 43.9 44V44C43.9 42.4723 44.5562 40.8102 46.0695 40.6011C46.5293 40.5375 47.0099 40.5 47.5 40.5C50.3 40.5 51.4 43 51.4 46.1ZM59.1 49.9C59.1 56 57.5 58.1 55.5 61.7C54.2391 63.9695 52.5544 66.1684 51.1583 67.4651C50.6919 67.8984 50.0323 68.0851 49.4369 67.8598V67.8598C48.4148 67.473 48.2326 66.2418 48.6948 65.2515C49.3766 63.7904 49.9911 62.3631 50.5 61.2C52 57.5 54.5 52.5 54.5 47V46.9145C54.5 46.5379 54.7234 46.2 55.1 46.2V46.2C56.6 46.2 59.1 46.7 59.1 49.9Z" fill="#CDE1F0"/>
<path d="M64.9 59.5C64.9 48.9 62 43.2 56 43.2C54.5 43.2 54.3 43.1 54 42.2C52.9 39 50.5 37.3 47.1 37.3C45.2 37.3 43.7 38.3 42.6 38.3C41.9 38.3 41.5 37.8 41.1 36.9C39.8 34 37.9 32.6 34.7 32.6C34.4267 32.6 34.1625 32.6052 33.9064 32.6161C31.5694 32.7161 28.6852 31.2144 28.587 28.8774C28.5336 27.6063 28.5 26.3115 28.5 25C28.5 20.8 28.8 16.1 28.8 13.8C28.8 7.29999 26.6 3.99998 21.9 3.99998C17.1 3.99998 14.8 7.49999 13.8 15.7C13.3 19.8 12.6 25.6 12.1 30.2C11.8305 32.8052 11.6417 35.4104 11.4611 38.0156C11.4211 38.5928 11.2044 39.1401 10.9127 39.6399C10.4936 40.3579 10.1178 41.2289 9.9 42.1C9.4 43.9 8.4 47.4 6.6 51.8C4.9 56 4 61.6 4 68.5C4 74.5 5.6 78.5 10.5 84.7C15 90.4 15.2 91.7 15.2 95.2C15.2 96.3917 15.0336 98.7483 14.99 99.9974C14.9716 100.524 15.2014 100.99 15.6234 101.306C19.4056 104.137 27.1151 106.1 34.2 106.1C43.3018 106.1 49.9524 104.579 53.9187 101.536C54.5723 101.034 54.9 100.233 54.9 99.4096L54.9 94.4087C54.9 93.7542 55.1174 93.1204 55.4973 92.5874C61.9792 83.4929 64.9 70.1774 64.9 59.5ZM61.5 59.5C61.5 71.8146 57.7976 83.9441 51.9957 91.347C51.5568 91.9069 51.3 92.5906 51.3 93.302V97.4074C51.3 98.4033 50.8146 99.353 49.9274 99.8055C46.4494 101.579 41.2069 102.5 34.2 102.5C29.2516 102.5 23.9393 101.408 20.3124 99.8455C19.2414 99.384 18.6677 98.2571 18.7337 97.0928C18.7733 96.3936 18.8 95.7167 18.8 95.2C18.8 90.7 18.1 88.4 13.4 82.5C8.9 76.9 7.6 73.7 7.6 68.5C7.6 62.1 8.4 56.9 9.9 53.2C11.8 48.6 12.9 44.8 13.4 43C13.6851 41.9547 14.4217 40.7288 14.7517 40.6094C14.7776 40.6001 14.8 40.5776 14.8 40.55V40.55C14.8 40.5224 14.8224 40.5 14.85 40.5H15.8C19.5 40.5 21.2 43.1 21.2 45.8C21.2 49.1418 19.8713 56.8682 18.676 60.2614C18.3556 61.1708 18.413 62.3771 19.0535 63.0977V63.0977C19.7297 63.8584 20.8701 63.8464 21.3097 62.9283C21.4961 62.5389 21.68 62.0991 21.8563 61.6173C22.1713 60.7564 23.2196 60.3762 23.9686 60.9046V60.9046C24.4912 61.2734 24.6392 61.9149 24.4307 62.5196C24.008 63.7453 23.7 64.9226 23.7 66.1C23.7 70.2 26.6 72.4 30 72.4V72.4C31.5146 72.4 33.0308 73.4031 33.8858 74.6533C34.2064 75.1221 34.5943 75.5367 35.0373 75.8881C35.5067 76.2605 35.9559 76.6817 36.1673 77.2423C36.7837 78.8772 37 80.8222 37 83.2C37 83.852 36.9748 84.7053 36.9119 85.5327C36.8282 86.6337 37.6883 87.7 38.7925 87.7V87.7C39.5609 87.7 40.2357 87.1772 40.3534 86.4179C40.5073 85.4251 40.6 84.2894 40.6 83.2C40.6 82.0806 40.5526 81.0323 40.4348 80.0436C40.2536 78.522 41.4397 77.0199 42.668 76.1039V76.1039C42.7879 76.0145 42.8479 75.9428 42.9396 75.8247C43.401 75.2308 43.954 74.3814 44.5512 73.3711C45.4893 71.7841 47.7564 71.5 49.6 71.5V71.5C50.1682 71.5 50.8023 71.4341 51.2884 71.3023C51.4989 71.2452 51.6913 71.14 51.8669 71.0105C54.0155 69.4265 56.5842 66.1397 58.6 62.3C59.1939 61.1492 59.6776 60.1362 60.0767 59.2355C60.3599 58.5963 61.5 58.8009 61.5 59.5V59.5ZM58.2 110.3V102.8C58.2 101.3 57.3 100.8 56.2 100.8V100.8C56.0094 100.8 55.9301 101.075 56.0669 101.208C56.3656 101.497 56.5 101.832 56.5 102.3C56.5 107.6 44.1 109.4 34.9 109.4C25.9 109.4 13.4 107.9 13.4 102.3C13.4 101.663 13.4827 101.358 13.949 100.931C13.999 100.886 13.9677 100.8 13.9 100.8V100.8C12.4 100.8 11.5 101.6 11.5 102.8L11.5 110.3C11.5 116.7 25.8 118.6 34.9 118.6C44.1 118.6 58.2 116.8 58.2 110.3ZM26.6874 46.5079C27.6094 47.6978 28.6401 49.1158 28.3304 50.5888C27.5594 54.2557 26.5964 56.5949 26.1027 57.9923C26.1009 57.9975 26.1 58.0028 26.1 58.0084V58.0084C26.1 58.0475 26.0564 58.0709 26.0238 58.0492C25.4125 57.6417 24.7999 57.2356 24.1547 56.8621C23.6613 56.5765 23.3915 56.009 23.5113 55.4516C24.2927 51.8188 24.8 47.9907 24.8 45.6C24.8 41 21.5 37 15.7 37V37C15.4312 37 15.2201 36.7696 15.242 36.5017C15.415 34.3832 15.5145 32.3695 15.7 30.7C16.2 25.7 16.8 20.2 17.4 16.2C18.4 9.69998 19.4 7.59999 21.9 7.59999C24.2 7.59999 25.2 8.99999 25.2 13.8C25.2 16 24.9 20.7 24.9 25C24.9 28.7694 25.2737 33.473 25.4793 37.3953C25.4933 37.664 25.4678 37.9325 25.4198 38.1972C25.2733 39.0047 25.2 39.9593 25.2 41.5C25.2 43.3641 25.6958 45.2281 26.6874 46.5079ZM40.3 44.5C40.3 47.1 39.6 52.2 38.2 56.1C36.1587 61.8688 34.0387 65.5109 32.539 67.5855C32.1963 68.0595 31.7093 68.4133 31.151 68.5876C30.6528 68.7432 30.048 68.9 29.6 68.9C27.7 68.9 27.1 67.4 27 66.3C26.7 64.1 28.6 61.4 29.4 58.9C30.5425 55.8805 31.6184 52.9277 32.3559 48.411C32.6435 46.6504 30.9338 45.3633 29.7404 44.0373C29.0627 43.2841 28.7 42.0685 28.7 40.2C28.7 39.9033 28.7 39.5713 28.7209 39.2042C28.751 38.6756 28.9592 38.1658 29.3479 37.8063C30.83 36.435 32.8759 36.2 35 36.2C36.4 36.2 36.7 36.6 38.1 38.8C39.7 41.4 40.3 42.9 40.3 44.5ZM51.4 46.1C51.4 49.9 49.9 54.3 47.6 60.2C46.0114 64.3118 42.9381 70.3448 41.3998 72.668C41.2073 72.9587 40.9559 73.2081 40.6414 73.3586C40.0898 73.6225 39.4153 73.8 38.8 73.8C37.1 73.8 35.5 72.7 35.5 70.9C35.5 70.2836 35.6551 69.6672 35.8969 68.9826C35.9636 68.794 36.0535 68.615 36.1583 68.4447C38.1103 65.2731 40.1395 61.0788 41.6 56.6C43 52.3 43.9 46.3 43.9 44V44C43.9 42.4723 44.5562 40.8102 46.0695 40.6011C46.5293 40.5375 47.0099 40.5 47.5 40.5C50.3 40.5 51.4 43 51.4 46.1ZM59.1 49.9C59.1 56 57.5 58.1 55.5 61.7C54.2391 63.9695 52.5544 66.1684 51.1583 67.4651C50.6919 67.8984 50.0323 68.0851 49.4369 67.8598V67.8598C48.4148 67.473 48.2326 66.2418 48.6948 65.2515C49.3766 63.7904 49.9911 62.3631 50.5 61.2C52 57.5 54.5 52.5 54.5 47V46.9145C54.5 46.5379 54.7234 46.2 55.1 46.2V46.2C56.6 46.2 59.1 46.7 59.1 49.9Z" stroke="black" stroke-width="8" mask="url(#path-1-outside-1_4_11)"/>
</svg>
