<svg width="123" height="69" viewBox="0 0 123 69" fill="none" xmlns="http://www.w3.org/2000/svg">
<mask id="path-1-outside-1_39_27" maskUnits="userSpaceOnUse" x="-0.399881" y="-0.099964" width="123" height="69" fill="black">
<rect fill="white" x="-0.399881" y="-0.099964" width="123" height="69"/>
<path d="M59.5001 4.00003C48.9001 4.00003 43.2001 6.90003 43.2001 12.9C43.2001 14.4 43.1001 14.6 42.2001 14.9C39.0001 16 37.3001 18.4 37.3001 21.8C37.3001 23.7 38.3001 25.2 38.3001 26.3C38.3001 27 37.8001 27.4 36.9001 27.8C34.0001 29.1 32.6001 31 32.6001 34.2C32.6001 34.4733 32.6053 34.7375 32.6163 34.9936C32.7163 37.3306 31.2145 40.2148 28.8775 40.313C27.6064 40.3664 26.3117 40.4 25.0001 40.4C20.8001 40.4 16.1001 40.1 13.8001 40.1C7.30011 40.1 4.0001 42.3 4.0001 47C4.0001 51.8 7.50011 54.1 15.7001 55.1C19.8001 55.6 25.6001 56.3 30.2001 56.8C32.8053 57.0695 35.4105 57.2583 38.0157 57.4389C38.593 57.4789 39.1403 57.6956 39.64 57.9873C40.358 58.4064 41.2291 58.7823 42.1001 59C43.9001 59.5 47.4001 60.5 51.8001 62.3C56.0001 64 61.6001 64.9 68.5001 64.9C74.5001 64.9 78.5001 63.3 84.7001 58.4C90.4001 53.9 91.7001 53.7 95.2001 53.7C96.3918 53.7 98.7484 53.8664 99.9976 53.9101C100.524 53.9285 100.99 53.6987 101.306 53.2766C104.137 49.4944 106.1 41.7849 106.1 34.7C106.1 25.5982 104.579 18.9476 101.536 14.9814C101.034 14.3278 100.233 14 99.4097 14H94.4089C93.7544 14 93.1205 13.7826 92.5875 13.4027C83.493 6.92086 70.1775 4.00003 59.5001 4.00003ZM59.5001 7.40003C71.8147 7.40003 83.9443 11.1024 91.3471 16.9043C91.9071 17.3432 92.5907 17.6 93.3022 17.6H97.4076C98.4034 17.6 99.3531 18.0854 99.8056 18.9726C101.58 22.4507 102.5 27.6932 102.5 34.7C102.5 39.6484 101.408 44.9607 99.8456 48.5876C99.3841 49.6587 98.2573 50.2323 97.0929 50.1663C96.3937 50.1267 95.7168 50.1 95.2001 50.1C90.7001 50.1 88.4001 50.8 82.5001 55.5C76.9001 60 73.7001 61.3 68.5001 61.3C62.1001 61.3 56.9001 60.5 53.2001 59C48.6001 57.1 44.8001 56 43.0001 55.5C41.9548 55.2149 40.7289 54.4784 40.6096 54.1484C40.6002 54.1224 40.5777 54.1 40.5501 54.1V54.1C40.5225 54.1 40.5001 54.0776 40.5001 54.05V53.1C40.5001 49.4 43.1001 47.7 45.8001 47.7C49.1419 47.7 56.8684 49.0287 60.2615 50.2241C61.1709 50.5444 62.3772 50.4871 63.0978 49.8465V49.8465C63.8586 49.1703 63.8465 48.03 62.9284 47.5904C62.539 47.4039 62.0992 47.22 61.6175 47.0437C60.7566 46.7287 60.3763 45.6805 60.9048 44.9314V44.9314C61.2735 44.4088 61.9151 44.2609 62.5197 44.4694C63.7454 44.892 64.9228 45.2 66.1001 45.2C70.2001 45.2 72.4001 42.3 72.4001 38.9V38.9C72.4001 37.3854 73.4032 35.8692 74.6535 35.0142C75.1222 34.6936 75.5368 34.3057 75.8883 33.8627C76.2606 33.3933 76.6818 32.9441 77.2424 32.7328C78.8773 32.1164 80.8224 31.9 83.2001 31.9C83.8521 31.9 84.7054 31.9252 85.5328 31.9881C86.6338 32.0719 87.7001 31.2117 87.7001 30.1075V30.1075C87.7001 29.3391 87.1773 28.6643 86.418 28.5466C85.4253 28.3927 84.2895 28.3 83.2001 28.3C82.0807 28.3 81.0324 28.3474 80.0437 28.4652C78.5222 28.6465 77.02 27.4603 76.104 26.232V26.232C76.0146 26.1121 75.9429 26.0522 75.8248 25.9604C75.2309 25.499 74.3815 24.9461 73.3712 24.3489C71.7842 23.4107 71.5001 21.1436 71.5001 19.3V19.3C71.5001 18.7318 71.4342 18.0977 71.3024 17.6116C71.2453 17.4011 71.1401 17.2087 71.0107 17.0331C69.4266 14.8846 66.1398 12.3159 62.3001 10.3C61.1493 9.70609 60.1364 9.22238 59.2356 8.82334C58.5964 8.54016 58.801 7.40003 59.5001 7.40003V7.40003ZM110.3 10.7L102.8 10.7C101.3 10.7 100.8 11.6 100.8 12.7V12.7C100.8 12.8907 101.075 12.97 101.208 12.8331C101.498 12.5344 101.832 12.4 102.3 12.4C107.6 12.4 109.4 24.8 109.4 34C109.4 43 107.9 55.5 102.3 55.5C101.663 55.5 101.358 55.4173 100.931 54.951C100.886 54.901 100.8 54.9323 100.8 55V55C100.8 56.5 101.6 57.4 102.8 57.4H110.3C116.7 57.4 118.6 43.1 118.6 34C118.6 24.8 116.8 10.7 110.3 10.7ZM46.5081 42.2126C47.6979 41.2907 49.1159 40.2599 50.5889 40.5696C54.2559 41.3406 56.5951 42.3036 57.9924 42.7973C57.9976 42.7992 58.0029 42.8 58.0085 42.8V42.8C58.0477 42.8 58.071 42.8437 58.0493 42.8762C57.6419 43.4875 57.2357 44.1001 56.8622 44.7453C56.5766 45.2387 56.0091 45.5086 55.4517 45.3887C51.8189 44.6073 47.9908 44.1 45.6001 44.1C41.0001 44.1 37.0001 47.4 37.0001 53.2V53.2C37.0001 53.4689 36.7697 53.6799 36.5018 53.658C34.3834 53.485 32.3697 53.3855 30.7001 53.2C25.7001 52.7 20.2001 52.1 16.2001 51.5C9.70011 50.5 7.60011 49.5 7.60011 47C7.60011 44.7 9.00012 43.7 13.8001 43.7C16.0001 43.7 20.7001 44 25.0001 44C28.7695 44 33.4731 43.6264 37.3954 43.4208C37.6641 43.4067 37.9326 43.4322 38.1973 43.4802C39.0048 43.6268 39.9594 43.7 41.5001 43.7C43.3642 43.7 45.2283 43.2042 46.5081 42.2126ZM44.5001 28.6C47.1001 28.6 52.2001 29.3 56.1001 30.7C61.8689 32.7413 65.511 34.8613 67.5856 36.3611C68.0596 36.7037 68.4134 37.1907 68.5877 37.749C68.7433 38.2472 68.9001 38.852 68.9001 39.3C68.9001 41.2 67.4001 41.8 66.3001 41.9C64.1001 42.2 61.4001 40.3 58.9001 39.5C55.8807 38.3575 52.9278 37.2816 48.4111 36.5441C46.6505 36.2566 45.3634 37.9662 44.0374 39.1596C43.2843 39.8374 42.0686 40.2 40.2001 40.2C39.9034 40.2 39.5715 40.2 39.2043 40.1791C38.6757 40.149 38.1659 39.9408 37.8064 39.5522C36.4351 38.07 36.2001 36.0242 36.2001 33.9C36.2001 32.5 36.6001 32.2 38.8001 30.8C41.4001 29.2 42.9001 28.6 44.5001 28.6ZM46.1001 17.5C49.9001 17.5 54.3001 19 60.2001 21.3C64.3119 22.8887 70.3449 25.9619 72.6682 27.5002C72.9589 27.6927 73.2082 27.9441 73.3587 28.2586C73.6226 28.8102 73.8001 29.4847 73.8001 30.1C73.8001 31.8 72.7001 33.4 70.9001 33.4C70.2837 33.4 69.6673 33.245 68.9827 33.0031C68.7941 32.9365 68.6152 32.8465 68.4448 32.7417C65.2733 30.7898 61.0789 28.7605 56.6001 27.3C52.3001 25.9 46.3001 25 44.0001 25V25C42.4725 25 40.8104 24.3438 40.6012 22.8306C40.5376 22.3708 40.5001 21.8901 40.5001 21.4C40.5001 18.6 43.0001 17.5 46.1001 17.5ZM49.9001 9.80003C56.0001 9.80003 58.1001 11.4 61.7001 13.4C63.9696 14.6609 66.1685 16.3457 67.4653 17.7417C67.8985 18.2081 68.0852 18.8677 67.8599 19.4631V19.4631C67.4731 20.4853 66.242 20.6674 65.2516 20.2052C63.7905 19.5234 62.3632 18.9089 61.2001 18.4C57.5001 16.9 52.5001 14.4 47.0001 14.4H46.9146C46.538 14.4 46.2001 14.1766 46.2001 13.8V13.8C46.2001 12.3 46.7001 9.80003 49.9001 9.80003Z"/>
</mask>
<path d="M59.5001 4.00003C48.9001 4.00003 43.2001 6.90003 43.2001 12.9C43.2001 14.4 43.1001 14.6 42.2001 14.9C39.0001 16 37.3001 18.4 37.3001 21.8C37.3001 23.7 38.3001 25.2 38.3001 26.3C38.3001 27 37.8001 27.4 36.9001 27.8C34.0001 29.1 32.6001 31 32.6001 34.2C32.6001 34.4733 32.6053 34.7375 32.6163 34.9936C32.7163 37.3306 31.2145 40.2148 28.8775 40.313C27.6064 40.3664 26.3117 40.4 25.0001 40.4C20.8001 40.4 16.1001 40.1 13.8001 40.1C7.30011 40.1 4.0001 42.3 4.0001 47C4.0001 51.8 7.50011 54.1 15.7001 55.1C19.8001 55.6 25.6001 56.3 30.2001 56.8C32.8053 57.0695 35.4105 57.2583 38.0157 57.4389C38.593 57.4789 39.1403 57.6956 39.64 57.9873C40.358 58.4064 41.2291 58.7823 42.1001 59C43.9001 59.5 47.4001 60.5 51.8001 62.3C56.0001 64 61.6001 64.9 68.5001 64.9C74.5001 64.9 78.5001 63.3 84.7001 58.4C90.4001 53.9 91.7001 53.7 95.2001 53.7C96.3918 53.7 98.7484 53.8664 99.9976 53.9101C100.524 53.9285 100.99 53.6987 101.306 53.2766C104.137 49.4944 106.1 41.7849 106.1 34.7C106.1 25.5982 104.579 18.9476 101.536 14.9814C101.034 14.3278 100.233 14 99.4097 14H94.4089C93.7544 14 93.1205 13.7826 92.5875 13.4027C83.493 6.92086 70.1775 4.00003 59.5001 4.00003ZM59.5001 7.40003C71.8147 7.40003 83.9443 11.1024 91.3471 16.9043C91.9071 17.3432 92.5907 17.6 93.3022 17.6H97.4076C98.4034 17.6 99.3531 18.0854 99.8056 18.9726C101.58 22.4507 102.5 27.6932 102.5 34.7C102.5 39.6484 101.408 44.9607 99.8456 48.5876C99.3841 49.6587 98.2573 50.2323 97.0929 50.1663C96.3937 50.1267 95.7168 50.1 95.2001 50.1C90.7001 50.1 88.4001 50.8 82.5001 55.5C76.9001 60 73.7001 61.3 68.5001 61.3C62.1001 61.3 56.9001 60.5 53.2001 59C48.6001 57.1 44.8001 56 43.0001 55.5C41.9548 55.2149 40.7289 54.4784 40.6096 54.1484C40.6002 54.1224 40.5777 54.1 40.5501 54.1V54.1C40.5225 54.1 40.5001 54.0776 40.5001 54.05V53.1C40.5001 49.4 43.1001 47.7 45.8001 47.7C49.1419 47.7 56.8684 49.0287 60.2615 50.2241C61.1709 50.5444 62.3772 50.4871 63.0978 49.8465V49.8465C63.8586 49.1703 63.8465 48.03 62.9284 47.5904C62.539 47.4039 62.0992 47.22 61.6175 47.0437C60.7566 46.7287 60.3763 45.6805 60.9048 44.9314V44.9314C61.2735 44.4088 61.9151 44.2609 62.5197 44.4694C63.7454 44.892 64.9228 45.2 66.1001 45.2C70.2001 45.2 72.4001 42.3 72.4001 38.9V38.9C72.4001 37.3854 73.4032 35.8692 74.6535 35.0142C75.1222 34.6936 75.5368 34.3057 75.8883 33.8627C76.2606 33.3933 76.6818 32.9441 77.2424 32.7328C78.8773 32.1164 80.8224 31.9 83.2001 31.9C83.8521 31.9 84.7054 31.9252 85.5328 31.9881C86.6338 32.0719 87.7001 31.2117 87.7001 30.1075V30.1075C87.7001 29.3391 87.1773 28.6643 86.418 28.5466C85.4253 28.3927 84.2895 28.3 83.2001 28.3C82.0807 28.3 81.0324 28.3474 80.0437 28.4652C78.5222 28.6465 77.02 27.4603 76.104 26.232V26.232C76.0146 26.1121 75.9429 26.0522 75.8248 25.9604C75.2309 25.499 74.3815 24.9461 73.3712 24.3489C71.7842 23.4107 71.5001 21.1436 71.5001 19.3V19.3C71.5001 18.7318 71.4342 18.0977 71.3024 17.6116C71.2453 17.4011 71.1401 17.2087 71.0107 17.0331C69.4266 14.8846 66.1398 12.3159 62.3001 10.3C61.1493 9.70609 60.1364 9.22238 59.2356 8.82334C58.5964 8.54016 58.801 7.40003 59.5001 7.40003V7.40003ZM110.3 10.7L102.8 10.7C101.3 10.7 100.8 11.6 100.8 12.7V12.7C100.8 12.8907 101.075 12.97 101.208 12.8331C101.498 12.5344 101.832 12.4 102.3 12.4C107.6 12.4 109.4 24.8 109.4 34C109.4 43 107.9 55.5 102.3 55.5C101.663 55.5 101.358 55.4173 100.931 54.951C100.886 54.901 100.8 54.9323 100.8 55V55C100.8 56.5 101.6 57.4 102.8 57.4H110.3C116.7 57.4 118.6 43.1 118.6 34C118.6 24.8 116.8 10.7 110.3 10.7ZM46.5081 42.2126C47.6979 41.2907 49.1159 40.2599 50.5889 40.5696C54.2559 41.3406 56.5951 42.3036 57.9924 42.7973C57.9976 42.7992 58.0029 42.8 58.0085 42.8V42.8C58.0477 42.8 58.071 42.8437 58.0493 42.8762C57.6419 43.4875 57.2357 44.1001 56.8622 44.7453C56.5766 45.2387 56.0091 45.5086 55.4517 45.3887C51.8189 44.6073 47.9908 44.1 45.6001 44.1C41.0001 44.1 37.0001 47.4 37.0001 53.2V53.2C37.0001 53.4689 36.7697 53.6799 36.5018 53.658C34.3834 53.485 32.3697 53.3855 30.7001 53.2C25.7001 52.7 20.2001 52.1 16.2001 51.5C9.70011 50.5 7.60011 49.5 7.60011 47C7.60011 44.7 9.00012 43.7 13.8001 43.7C16.0001 43.7 20.7001 44 25.0001 44C28.7695 44 33.4731 43.6264 37.3954 43.4208C37.6641 43.4067 37.9326 43.4322 38.1973 43.4802C39.0048 43.6268 39.9594 43.7 41.5001 43.7C43.3642 43.7 45.2283 43.2042 46.5081 42.2126ZM44.5001 28.6C47.1001 28.6 52.2001 29.3 56.1001 30.7C61.8689 32.7413 65.511 34.8613 67.5856 36.3611C68.0596 36.7037 68.4134 37.1907 68.5877 37.749C68.7433 38.2472 68.9001 38.852 68.9001 39.3C68.9001 41.2 67.4001 41.8 66.3001 41.9C64.1001 42.2 61.4001 40.3 58.9001 39.5C55.8807 38.3575 52.9278 37.2816 48.4111 36.5441C46.6505 36.2566 45.3634 37.9662 44.0374 39.1596C43.2843 39.8374 42.0686 40.2 40.2001 40.2C39.9034 40.2 39.5715 40.2 39.2043 40.1791C38.6757 40.149 38.1659 39.9408 37.8064 39.5522C36.4351 38.07 36.2001 36.0242 36.2001 33.9C36.2001 32.5 36.6001 32.2 38.8001 30.8C41.4001 29.2 42.9001 28.6 44.5001 28.6ZM46.1001 17.5C49.9001 17.5 54.3001 19 60.2001 21.3C64.3119 22.8887 70.3449 25.9619 72.6682 27.5002C72.9589 27.6927 73.2082 27.9441 73.3587 28.2586C73.6226 28.8102 73.8001 29.4847 73.8001 30.1C73.8001 31.8 72.7001 33.4 70.9001 33.4C70.2837 33.4 69.6673 33.245 68.9827 33.0031C68.7941 32.9365 68.6152 32.8465 68.4448 32.7417C65.2733 30.7898 61.0789 28.7605 56.6001 27.3C52.3001 25.9 46.3001 25 44.0001 25V25C42.4725 25 40.8104 24.3438 40.6012 22.8306C40.5376 22.3708 40.5001 21.8901 40.5001 21.4C40.5001 18.6 43.0001 17.5 46.1001 17.5ZM49.9001 9.80003C56.0001 9.80003 58.1001 11.4 61.7001 13.4C63.9696 14.6609 66.1685 16.3457 67.4653 17.7417C67.8985 18.2081 68.0852 18.8677 67.8599 19.4631V19.4631C67.4731 20.4853 66.242 20.6674 65.2516 20.2052C63.7905 19.5234 62.3632 18.9089 61.2001 18.4C57.5001 16.9 52.5001 14.4 47.0001 14.4H46.9146C46.538 14.4 46.2001 14.1766 46.2001 13.8V13.8C46.2001 12.3 46.7001 9.80003 49.9001 9.80003Z" fill="white"/>
<path d="M59.5001 4.00003C48.9001 4.00003 43.2001 6.90003 43.2001 12.9C43.2001 14.4 43.1001 14.6 42.2001 14.9C39.0001 16 37.3001 18.4 37.3001 21.8C37.3001 23.7 38.3001 25.2 38.3001 26.3C38.3001 27 37.8001 27.4 36.9001 27.8C34.0001 29.1 32.6001 31 32.6001 34.2C32.6001 34.4733 32.6053 34.7375 32.6163 34.9936C32.7163 37.3306 31.2145 40.2148 28.8775 40.313C27.6064 40.3664 26.3117 40.4 25.0001 40.4C20.8001 40.4 16.1001 40.1 13.8001 40.1C7.30011 40.1 4.0001 42.3 4.0001 47C4.0001 51.8 7.50011 54.1 15.7001 55.1C19.8001 55.6 25.6001 56.3 30.2001 56.8C32.8053 57.0695 35.4105 57.2583 38.0157 57.4389C38.593 57.4789 39.1403 57.6956 39.64 57.9873C40.358 58.4064 41.2291 58.7823 42.1001 59C43.9001 59.5 47.4001 60.5 51.8001 62.3C56.0001 64 61.6001 64.9 68.5001 64.9C74.5001 64.9 78.5001 63.3 84.7001 58.4C90.4001 53.9 91.7001 53.7 95.2001 53.7C96.3918 53.7 98.7484 53.8664 99.9976 53.9101C100.524 53.9285 100.99 53.6987 101.306 53.2766C104.137 49.4944 106.1 41.7849 106.1 34.7C106.1 25.5982 104.579 18.9476 101.536 14.9814C101.034 14.3278 100.233 14 99.4097 14H94.4089C93.7544 14 93.1205 13.7826 92.5875 13.4027C83.493 6.92086 70.1775 4.00003 59.5001 4.00003ZM59.5001 7.40003C71.8147 7.40003 83.9443 11.1024 91.3471 16.9043C91.9071 17.3432 92.5907 17.6 93.3022 17.6H97.4076C98.4034 17.6 99.3531 18.0854 99.8056 18.9726C101.58 22.4507 102.5 27.6932 102.5 34.7C102.5 39.6484 101.408 44.9607 99.8456 48.5876C99.3841 49.6587 98.2573 50.2323 97.0929 50.1663C96.3937 50.1267 95.7168 50.1 95.2001 50.1C90.7001 50.1 88.4001 50.8 82.5001 55.5C76.9001 60 73.7001 61.3 68.5001 61.3C62.1001 61.3 56.9001 60.5 53.2001 59C48.6001 57.1 44.8001 56 43.0001 55.5C41.9548 55.2149 40.7289 54.4784 40.6096 54.1484C40.6002 54.1224 40.5777 54.1 40.5501 54.1V54.1C40.5225 54.1 40.5001 54.0776 40.5001 54.05V53.1C40.5001 49.4 43.1001 47.7 45.8001 47.7C49.1419 47.7 56.8684 49.0287 60.2615 50.2241C61.1709 50.5444 62.3772 50.4871 63.0978 49.8465V49.8465C63.8586 49.1703 63.8465 48.03 62.9284 47.5904C62.539 47.4039 62.0992 47.22 61.6175 47.0437C60.7566 46.7287 60.3763 45.6805 60.9048 44.9314V44.9314C61.2735 44.4088 61.9151 44.2609 62.5197 44.4694C63.7454 44.892 64.9228 45.2 66.1001 45.2C70.2001 45.2 72.4001 42.3 72.4001 38.9V38.9C72.4001 37.3854 73.4032 35.8692 74.6535 35.0142C75.1222 34.6936 75.5368 34.3057 75.8883 33.8627C76.2606 33.3933 76.6818 32.9441 77.2424 32.7328C78.8773 32.1164 80.8224 31.9 83.2001 31.9C83.8521 31.9 84.7054 31.9252 85.5328 31.9881C86.6338 32.0719 87.7001 31.2117 87.7001 30.1075V30.1075C87.7001 29.3391 87.1773 28.6643 86.418 28.5466C85.4253 28.3927 84.2895 28.3 83.2001 28.3C82.0807 28.3 81.0324 28.3474 80.0437 28.4652C78.5222 28.6465 77.02 27.4603 76.104 26.232V26.232C76.0146 26.1121 75.9429 26.0522 75.8248 25.9604C75.2309 25.499 74.3815 24.9461 73.3712 24.3489C71.7842 23.4107 71.5001 21.1436 71.5001 19.3V19.3C71.5001 18.7318 71.4342 18.0977 71.3024 17.6116C71.2453 17.4011 71.1401 17.2087 71.0107 17.0331C69.4266 14.8846 66.1398 12.3159 62.3001 10.3C61.1493 9.70609 60.1364 9.22238 59.2356 8.82334C58.5964 8.54016 58.801 7.40003 59.5001 7.40003V7.40003ZM110.3 10.7L102.8 10.7C101.3 10.7 100.8 11.6 100.8 12.7V12.7C100.8 12.8907 101.075 12.97 101.208 12.8331C101.498 12.5344 101.832 12.4 102.3 12.4C107.6 12.4 109.4 24.8 109.4 34C109.4 43 107.9 55.5 102.3 55.5C101.663 55.5 101.358 55.4173 100.931 54.951C100.886 54.901 100.8 54.9323 100.8 55V55C100.8 56.5 101.6 57.4 102.8 57.4H110.3C116.7 57.4 118.6 43.1 118.6 34C118.6 24.8 116.8 10.7 110.3 10.7ZM46.5081 42.2126C47.6979 41.2907 49.1159 40.2599 50.5889 40.5696C54.2559 41.3406 56.5951 42.3036 57.9924 42.7973C57.9976 42.7992 58.0029 42.8 58.0085 42.8V42.8C58.0477 42.8 58.071 42.8437 58.0493 42.8762C57.6419 43.4875 57.2357 44.1001 56.8622 44.7453C56.5766 45.2387 56.0091 45.5086 55.4517 45.3887C51.8189 44.6073 47.9908 44.1 45.6001 44.1C41.0001 44.1 37.0001 47.4 37.0001 53.2V53.2C37.0001 53.4689 36.7697 53.6799 36.5018 53.658C34.3834 53.485 32.3697 53.3855 30.7001 53.2C25.7001 52.7 20.2001 52.1 16.2001 51.5C9.70011 50.5 7.60011 49.5 7.60011 47C7.60011 44.7 9.00012 43.7 13.8001 43.7C16.0001 43.7 20.7001 44 25.0001 44C28.7695 44 33.4731 43.6264 37.3954 43.4208C37.6641 43.4067 37.9326 43.4322 38.1973 43.4802C39.0048 43.6268 39.9594 43.7 41.5001 43.7C43.3642 43.7 45.2283 43.2042 46.5081 42.2126ZM44.5001 28.6C47.1001 28.6 52.2001 29.3 56.1001 30.7C61.8689 32.7413 65.511 34.8613 67.5856 36.3611C68.0596 36.7037 68.4134 37.1907 68.5877 37.749C68.7433 38.2472 68.9001 38.852 68.9001 39.3C68.9001 41.2 67.4001 41.8 66.3001 41.9C64.1001 42.2 61.4001 40.3 58.9001 39.5C55.8807 38.3575 52.9278 37.2816 48.4111 36.5441C46.6505 36.2566 45.3634 37.9662 44.0374 39.1596C43.2843 39.8374 42.0686 40.2 40.2001 40.2C39.9034 40.2 39.5715 40.2 39.2043 40.1791C38.6757 40.149 38.1659 39.9408 37.8064 39.5522C36.4351 38.07 36.2001 36.0242 36.2001 33.9C36.2001 32.5 36.6001 32.2 38.8001 30.8C41.4001 29.2 42.9001 28.6 44.5001 28.6ZM46.1001 17.5C49.9001 17.5 54.3001 19 60.2001 21.3C64.3119 22.8887 70.3449 25.9619 72.6682 27.5002C72.9589 27.6927 73.2082 27.9441 73.3587 28.2586C73.6226 28.8102 73.8001 29.4847 73.8001 30.1C73.8001 31.8 72.7001 33.4 70.9001 33.4C70.2837 33.4 69.6673 33.245 68.9827 33.0031C68.7941 32.9365 68.6152 32.8465 68.4448 32.7417C65.2733 30.7898 61.0789 28.7605 56.6001 27.3C52.3001 25.9 46.3001 25 44.0001 25V25C42.4725 25 40.8104 24.3438 40.6012 22.8306C40.5376 22.3708 40.5001 21.8901 40.5001 21.4C40.5001 18.6 43.0001 17.5 46.1001 17.5ZM49.9001 9.80003C56.0001 9.80003 58.1001 11.4 61.7001 13.4C63.9696 14.6609 66.1685 16.3457 67.4653 17.7417C67.8985 18.2081 68.0852 18.8677 67.8599 19.4631V19.4631C67.4731 20.4853 66.242 20.6674 65.2516 20.2052C63.7905 19.5234 62.3632 18.9089 61.2001 18.4C57.5001 16.9 52.5001 14.4 47.0001 14.4H46.9146C46.538 14.4 46.2001 14.1766 46.2001 13.8V13.8C46.2001 12.3 46.7001 9.80003 49.9001 9.80003Z" stroke="black" stroke-width="8" mask="url(#path-1-outside-1_39_27)"/>
</svg>
