<svg width="86" height="87" viewBox="0 0 86 87" fill="none" xmlns="http://www.w3.org/2000/svg">
<path d="M17.8727 78.4092C23.8541 79.2498 28.4127 77.9635 31.6252 75.0096C34.7679 72.1197 36.313 67.9128 36.9309 63.5166L37.8077 57.2779L44.7395 58.2522L43.8627 64.4908C43.2449 68.887 43.5705 73.3568 45.795 77.001C48.0688 80.726 52.0962 83.219 58.0776 84.0596C63.1064 84.7664 67.6519 83.7706 71.148 81.1748C74.6474 78.5765 76.887 74.5294 77.5891 69.5337C78.3203 64.3312 77.3724 59.7073 74.4475 56.155C71.5458 52.6308 66.9486 50.4673 60.9976 49.6309L57.1355 49.0882L58.1098 42.1563L61.9718 42.6991C67.9228 43.5354 72.9382 42.7229 76.699 40.135C80.4897 37.5266 82.6754 33.3431 83.4066 28.1405C84.1087 23.1449 83.0713 18.6372 80.4236 15.175C77.7785 11.7161 73.6835 9.50599 68.6548 8.79924C62.6734 7.95861 58.1148 9.24491 54.9024 12.1989C51.7596 15.0887 50.2145 19.2957 49.5967 23.6918L48.7199 29.9305L41.788 28.9563L42.6648 22.7176C43.2826 18.3215 42.957 13.8516 40.7325 10.2074C38.4587 6.48242 34.4313 3.98944 28.4499 3.14881C23.4211 2.44207 18.8756 3.43785 15.3796 6.03364C11.8801 8.63194 9.64049 12.6791 8.9384 17.6747C8.20723 22.8772 9.15517 27.5012 12.08 31.0534C14.9818 34.5777 19.5789 36.7411 25.5299 37.5775L29.392 38.1203L28.4178 45.0521L24.5557 44.5094C18.6047 43.673 13.5893 44.4855 9.82852 47.0734C6.03787 49.6819 3.85213 53.8654 3.12096 59.0679C2.41887 64.0635 3.45621 68.5712 6.10389 72.0334C8.749 75.4923 12.844 77.7024 17.8727 78.4092ZM60.5174 25.0246C60.8283 22.8129 61.6051 21.3751 62.5939 20.5491C63.549 19.7512 64.9818 19.2902 67.1378 19.5932C69.1725 19.8791 70.5887 20.5877 71.4289 21.5858C72.2351 22.5434 72.7689 24.0748 72.4146 26.5957C72.0651 29.0828 71.21 30.475 70.0375 31.2446C68.8018 32.0556 66.7772 32.4683 63.4749 32.0042L59.6128 31.4614L60.5174 25.0246ZM27.033 26.8826C23.7307 26.4185 21.8982 25.4638 20.934 24.3435C20.019 23.2806 19.5808 21.7066 19.9304 19.2195C20.2847 16.6986 21.2198 15.3736 22.2588 14.6753C23.3416 13.9476 24.8982 13.6568 26.9329 13.9427C29.0889 14.2457 30.3391 15.0839 31.0373 16.1141C31.7601 17.1806 32.1105 18.7768 31.7997 20.9886L30.895 27.4254L27.033 26.8826ZM39.3107 46.5831L40.2849 39.6512L47.2168 40.6254L46.2426 47.5573L39.3107 46.5831ZM19.3897 67.6153C17.355 67.3293 15.9389 66.6207 15.0986 65.6227C14.2924 64.6651 13.7586 63.1336 14.1129 60.6127C14.4625 58.1257 15.3175 56.7334 16.49 55.9638C17.7257 55.1528 19.7503 54.7402 23.0527 55.2043L26.9147 55.747L26.0101 62.1838C25.6992 64.3956 24.9224 65.8333 23.9336 66.6594C22.9785 67.4572 21.5458 67.9183 19.3897 67.6153ZM54.7278 66.2198L55.6325 59.7831L59.4945 60.3258C62.7968 60.7899 64.6293 61.7447 65.5936 62.8649C66.5085 63.9278 66.9467 65.5018 66.5972 67.9889C66.2429 70.5098 65.3077 71.8348 64.2687 72.5331C63.1859 73.2609 61.6293 73.5517 59.5946 73.2657C57.4386 72.9627 56.1884 72.1246 55.4902 71.0944C54.7675 70.0278 54.417 68.4316 54.7278 66.2198Z" fill="#FA8383" stroke="black" stroke-width="4"/>
</svg>
