<svg width="123" height="70" viewBox="0 0 123 70" fill="none" xmlns="http://www.w3.org/2000/svg">
<mask id="path-1-outside-1_39_26" maskUnits="userSpaceOnUse" x="0.150025" y="0.849976" width="123" height="69" fill="black">
<rect fill="white" x="0.150025" y="0.849976" width="123" height="69"/>
<path d="M63.25 65.75C73.85 65.75 79.55 62.85 79.55 56.85C79.55 55.35 79.65 55.15 80.55 54.85C83.75 53.75 85.45 51.35 85.45 47.95C85.45 46.05 84.45 44.55 84.45 43.45C84.45 42.75 84.95 42.35 85.85 41.95C88.75 40.65 90.15 38.75 90.15 35.55C90.15 35.2767 90.1448 35.0125 90.1339 34.7564C90.0339 32.4194 91.5356 29.5352 93.8726 29.437C95.1437 29.3836 96.4385 29.35 97.75 29.35C101.95 29.35 106.65 29.65 108.95 29.65C115.45 29.65 118.75 27.45 118.75 22.75C118.75 17.95 115.25 15.65 107.05 14.65C102.95 14.15 97.15 13.45 92.55 12.95C89.9448 12.6805 87.3396 12.4917 84.7344 12.3111C84.1572 12.2711 83.6099 12.0544 83.1101 11.7627C82.3921 11.3436 81.5211 10.9677 80.65 10.75C78.85 10.25 75.35 9.24998 70.95 7.44998C66.75 5.74998 61.15 4.84998 54.25 4.84998C48.25 4.84998 44.25 6.44998 38.05 11.35C32.35 15.85 31.05 16.05 27.55 16.05C26.3583 16.05 24.0017 15.8836 22.7526 15.8399C22.2257 15.8215 21.7597 16.0513 21.4438 16.4734C18.6132 20.2556 16.65 27.9651 16.65 35.05C16.65 44.1518 18.1715 50.8024 21.2144 54.7686C21.7158 55.4222 22.5166 55.75 23.3404 55.75H28.3413C28.9958 55.75 29.6296 55.9674 30.1626 56.3473C39.2571 62.8291 52.5726 65.75 63.25 65.75ZM63.25 62.35C50.9354 62.35 38.8059 58.6476 31.403 52.8457C30.8431 52.4068 30.1594 52.15 29.448 52.15H25.3426C24.3467 52.15 23.397 51.6646 22.9445 50.7774C21.1706 47.2993 20.25 42.0568 20.25 35.05C20.25 30.1016 21.3419 24.7893 22.9045 21.1624C23.366 20.0913 24.4929 19.5177 25.6572 19.5837C26.3564 19.6233 27.0333 19.65 27.55 19.65C32.05 19.65 34.35 18.95 40.25 14.25C45.85 9.74998 49.05 8.44998 54.25 8.44998C60.65 8.44998 65.85 9.24998 69.55 10.75C74.15 12.65 77.95 13.75 79.75 14.25C80.7953 14.5351 82.0212 15.2716 82.1406 15.6016C82.1499 15.6276 82.1724 15.65 82.2 15.65V15.65C82.2276 15.65 82.25 15.6724 82.25 15.7V16.65C82.25 20.35 79.65 22.05 76.95 22.05C73.6082 22.05 65.8818 20.7213 62.4886 19.5259C61.5792 19.2056 60.3729 19.2629 59.6523 19.9035V19.9035C58.8916 20.5797 58.9036 21.72 59.8217 22.1596C60.2111 22.3461 60.6509 22.53 61.1327 22.7063C61.9936 23.0213 62.3738 24.0695 61.8454 24.8186V24.8186C61.4766 25.3412 60.8351 25.4891 60.2304 25.2806C59.0047 24.858 57.8274 24.55 56.65 24.55C52.55 24.55 50.35 27.45 50.35 30.85V30.85C50.35 32.3646 49.3469 33.8808 48.0967 34.7358C47.6279 35.0564 47.2133 35.4443 46.8619 35.8873C46.4895 36.3567 46.0683 36.8059 45.5077 37.0172C43.8728 37.6336 41.9278 37.85 39.55 37.85C38.898 37.85 38.0447 37.8248 37.2173 37.7619C36.1163 37.6781 35.05 38.5383 35.05 39.6425V39.6425C35.05 40.4109 35.5728 41.0857 36.3321 41.2034C37.3249 41.3573 38.4606 41.45 39.55 41.45C40.6694 41.45 41.7177 41.4026 42.7064 41.2848C44.228 41.1035 45.7301 42.2897 46.6461 43.518V43.518C46.7355 43.6379 46.8072 43.6978 46.9253 43.7896C47.5192 44.251 48.3686 44.8039 49.3789 45.4011C50.9659 46.3393 51.25 48.6064 51.25 50.45V50.45C51.25 51.0182 51.3159 51.6523 51.4477 52.1384C51.5048 52.3489 51.61 52.5413 51.7395 52.7169C53.3235 54.8654 56.6103 57.4341 60.45 59.45C61.6008 60.0439 62.6138 60.5276 63.5145 60.9267C64.1537 61.2098 63.9491 62.35 63.25 62.35V62.35ZM12.45 59.05H19.95C21.45 59.05 21.95 58.15 21.95 57.05V57.05C21.95 56.8593 21.675 56.78 21.5423 56.9169C21.2526 57.2156 20.9185 57.35 20.45 57.35C15.15 57.35 13.35 44.95 13.35 35.75C13.35 26.75 14.85 14.25 20.45 14.25C21.0866 14.25 21.3924 14.3327 21.8187 14.799C21.8644 14.849 21.95 14.8177 21.95 14.75V14.75C21.95 13.25 21.15 12.35 19.95 12.35L12.45 12.35C6.05002 12.35 4.15002 26.65 4.15002 35.75C4.15002 44.95 5.95002 59.05 12.45 59.05ZM76.2421 27.5374C75.0522 28.4593 73.6342 29.4901 72.1612 29.1804C68.4943 28.4094 66.1551 27.4464 64.7577 26.9527C64.7525 26.9508 64.7472 26.95 64.7416 26.95V26.95C64.7025 26.95 64.6791 26.9063 64.7008 26.8738C65.1083 26.2625 65.5144 25.6499 65.8879 25.0047C66.1735 24.5113 66.741 24.2414 67.2984 24.3613C70.9312 25.1427 74.7593 25.65 77.15 25.65C81.75 25.65 85.75 22.35 85.75 16.55V16.55C85.75 16.2811 85.9804 16.0701 86.2483 16.092C88.3668 16.265 90.3805 16.3645 92.05 16.55C97.05 17.05 102.55 17.65 106.55 18.25C113.05 19.25 115.15 20.25 115.15 22.75C115.15 25.05 113.75 26.05 108.95 26.05C106.75 26.05 102.05 25.75 97.75 25.75C93.9806 25.75 89.277 26.1236 85.3547 26.3292C85.086 26.3433 84.8175 26.3178 84.5528 26.2698C83.7453 26.1232 82.7907 26.05 81.25 26.05C79.3859 26.05 77.5219 26.5458 76.2421 27.5374ZM78.25 41.15C75.65 41.15 70.55 40.45 66.65 39.05C60.8812 37.0087 57.2391 34.8887 55.1645 33.3889C54.6905 33.0463 54.3367 32.5593 54.1624 32.001C54.0068 31.5028 53.85 30.898 53.85 30.45C53.85 28.55 55.35 27.95 56.45 27.85C58.65 27.55 61.35 29.45 63.85 30.25C66.8695 31.3925 69.8223 32.4684 74.339 33.2059C76.0996 33.4934 77.3867 31.7838 78.7127 30.5904C79.4659 29.9126 80.6815 29.55 82.55 29.55C82.8467 29.55 83.1787 29.55 83.5458 29.5709C84.0744 29.601 84.5842 29.8092 84.9437 30.1978C86.315 31.68 86.55 33.7258 86.55 35.85C86.55 37.25 86.15 37.55 83.95 38.95C81.35 40.55 79.85 41.15 78.25 41.15ZM76.65 52.25C72.85 52.25 68.45 50.75 62.55 48.45C58.4382 46.8613 52.4052 43.7881 50.082 42.2498C49.7913 42.0573 49.5419 41.8059 49.3914 41.4914C49.1275 40.9398 48.95 40.2653 48.95 39.65C48.95 37.95 50.05 36.35 51.85 36.35C52.4664 36.35 53.0828 36.505 53.7674 36.7469C53.956 36.8135 54.135 36.9035 54.3053 37.0083C57.4769 38.9602 61.6712 40.9895 66.15 42.45C70.45 43.85 76.45 44.75 78.75 44.75V44.75C80.2777 44.75 81.9398 45.4062 82.1489 46.9194C82.2125 47.3792 82.25 47.8599 82.25 48.35C82.25 51.15 79.75 52.25 76.65 52.25ZM72.85 59.95C66.75 59.95 64.65 58.35 61.05 56.35C58.7805 55.0891 56.5816 53.4043 55.2849 52.0083C54.8516 51.5419 54.6649 50.8823 54.8902 50.2869V50.2869C55.277 49.2647 56.5082 49.0826 57.4985 49.5448C58.9596 50.2266 60.3869 50.8411 61.55 51.35C65.25 52.85 70.25 55.35 75.75 55.35H75.8355C76.2121 55.35 76.55 55.5734 76.55 55.95V55.95C76.55 57.45 76.05 59.95 72.85 59.95Z"/>
</mask>
<path d="M63.25 65.75C73.85 65.75 79.55 62.85 79.55 56.85C79.55 55.35 79.65 55.15 80.55 54.85C83.75 53.75 85.45 51.35 85.45 47.95C85.45 46.05 84.45 44.55 84.45 43.45C84.45 42.75 84.95 42.35 85.85 41.95C88.75 40.65 90.15 38.75 90.15 35.55C90.15 35.2767 90.1448 35.0125 90.1339 34.7564C90.0339 32.4194 91.5356 29.5352 93.8726 29.437C95.1437 29.3836 96.4385 29.35 97.75 29.35C101.95 29.35 106.65 29.65 108.95 29.65C115.45 29.65 118.75 27.45 118.75 22.75C118.75 17.95 115.25 15.65 107.05 14.65C102.95 14.15 97.15 13.45 92.55 12.95C89.9448 12.6805 87.3396 12.4917 84.7344 12.3111C84.1572 12.2711 83.6099 12.0544 83.1101 11.7627C82.3921 11.3436 81.5211 10.9677 80.65 10.75C78.85 10.25 75.35 9.24998 70.95 7.44998C66.75 5.74998 61.15 4.84998 54.25 4.84998C48.25 4.84998 44.25 6.44998 38.05 11.35C32.35 15.85 31.05 16.05 27.55 16.05C26.3583 16.05 24.0017 15.8836 22.7526 15.8399C22.2257 15.8215 21.7597 16.0513 21.4438 16.4734C18.6132 20.2556 16.65 27.9651 16.65 35.05C16.65 44.1518 18.1715 50.8024 21.2144 54.7686C21.7158 55.4222 22.5166 55.75 23.3404 55.75H28.3413C28.9958 55.75 29.6296 55.9674 30.1626 56.3473C39.2571 62.8291 52.5726 65.75 63.25 65.75ZM63.25 62.35C50.9354 62.35 38.8059 58.6476 31.403 52.8457C30.8431 52.4068 30.1594 52.15 29.448 52.15H25.3426C24.3467 52.15 23.397 51.6646 22.9445 50.7774C21.1706 47.2993 20.25 42.0568 20.25 35.05C20.25 30.1016 21.3419 24.7893 22.9045 21.1624C23.366 20.0913 24.4929 19.5177 25.6572 19.5837C26.3564 19.6233 27.0333 19.65 27.55 19.65C32.05 19.65 34.35 18.95 40.25 14.25C45.85 9.74998 49.05 8.44998 54.25 8.44998C60.65 8.44998 65.85 9.24998 69.55 10.75C74.15 12.65 77.95 13.75 79.75 14.25C80.7953 14.5351 82.0212 15.2716 82.1406 15.6016C82.1499 15.6276 82.1724 15.65 82.2 15.65V15.65C82.2276 15.65 82.25 15.6724 82.25 15.7V16.65C82.25 20.35 79.65 22.05 76.95 22.05C73.6082 22.05 65.8818 20.7213 62.4886 19.5259C61.5792 19.2056 60.3729 19.2629 59.6523 19.9035V19.9035C58.8916 20.5797 58.9036 21.72 59.8217 22.1596C60.2111 22.3461 60.6509 22.53 61.1327 22.7063C61.9936 23.0213 62.3738 24.0695 61.8454 24.8186V24.8186C61.4766 25.3412 60.8351 25.4891 60.2304 25.2806C59.0047 24.858 57.8274 24.55 56.65 24.55C52.55 24.55 50.35 27.45 50.35 30.85V30.85C50.35 32.3646 49.3469 33.8808 48.0967 34.7358C47.6279 35.0564 47.2133 35.4443 46.8619 35.8873C46.4895 36.3567 46.0683 36.8059 45.5077 37.0172C43.8728 37.6336 41.9278 37.85 39.55 37.85C38.898 37.85 38.0447 37.8248 37.2173 37.7619C36.1163 37.6781 35.05 38.5383 35.05 39.6425V39.6425C35.05 40.4109 35.5728 41.0857 36.3321 41.2034C37.3249 41.3573 38.4606 41.45 39.55 41.45C40.6694 41.45 41.7177 41.4026 42.7064 41.2848C44.228 41.1035 45.7301 42.2897 46.6461 43.518V43.518C46.7355 43.6379 46.8072 43.6978 46.9253 43.7896C47.5192 44.251 48.3686 44.8039 49.3789 45.4011C50.9659 46.3393 51.25 48.6064 51.25 50.45V50.45C51.25 51.0182 51.3159 51.6523 51.4477 52.1384C51.5048 52.3489 51.61 52.5413 51.7395 52.7169C53.3235 54.8654 56.6103 57.4341 60.45 59.45C61.6008 60.0439 62.6138 60.5276 63.5145 60.9267C64.1537 61.2098 63.9491 62.35 63.25 62.35V62.35ZM12.45 59.05H19.95C21.45 59.05 21.95 58.15 21.95 57.05V57.05C21.95 56.8593 21.675 56.78 21.5423 56.9169C21.2526 57.2156 20.9185 57.35 20.45 57.35C15.15 57.35 13.35 44.95 13.35 35.75C13.35 26.75 14.85 14.25 20.45 14.25C21.0866 14.25 21.3924 14.3327 21.8187 14.799C21.8644 14.849 21.95 14.8177 21.95 14.75V14.75C21.95 13.25 21.15 12.35 19.95 12.35L12.45 12.35C6.05002 12.35 4.15002 26.65 4.15002 35.75C4.15002 44.95 5.95002 59.05 12.45 59.05ZM76.2421 27.5374C75.0522 28.4593 73.6342 29.4901 72.1612 29.1804C68.4943 28.4094 66.1551 27.4464 64.7577 26.9527C64.7525 26.9508 64.7472 26.95 64.7416 26.95V26.95C64.7025 26.95 64.6791 26.9063 64.7008 26.8738C65.1083 26.2625 65.5144 25.6499 65.8879 25.0047C66.1735 24.5113 66.741 24.2414 67.2984 24.3613C70.9312 25.1427 74.7593 25.65 77.15 25.65C81.75 25.65 85.75 22.35 85.75 16.55V16.55C85.75 16.2811 85.9804 16.0701 86.2483 16.092C88.3668 16.265 90.3805 16.3645 92.05 16.55C97.05 17.05 102.55 17.65 106.55 18.25C113.05 19.25 115.15 20.25 115.15 22.75C115.15 25.05 113.75 26.05 108.95 26.05C106.75 26.05 102.05 25.75 97.75 25.75C93.9806 25.75 89.277 26.1236 85.3547 26.3292C85.086 26.3433 84.8175 26.3178 84.5528 26.2698C83.7453 26.1232 82.7907 26.05 81.25 26.05C79.3859 26.05 77.5219 26.5458 76.2421 27.5374ZM78.25 41.15C75.65 41.15 70.55 40.45 66.65 39.05C60.8812 37.0087 57.2391 34.8887 55.1645 33.3889C54.6905 33.0463 54.3367 32.5593 54.1624 32.001C54.0068 31.5028 53.85 30.898 53.85 30.45C53.85 28.55 55.35 27.95 56.45 27.85C58.65 27.55 61.35 29.45 63.85 30.25C66.8695 31.3925 69.8223 32.4684 74.339 33.2059C76.0996 33.4934 77.3867 31.7838 78.7127 30.5904C79.4659 29.9126 80.6815 29.55 82.55 29.55C82.8467 29.55 83.1787 29.55 83.5458 29.5709C84.0744 29.601 84.5842 29.8092 84.9437 30.1978C86.315 31.68 86.55 33.7258 86.55 35.85C86.55 37.25 86.15 37.55 83.95 38.95C81.35 40.55 79.85 41.15 78.25 41.15ZM76.65 52.25C72.85 52.25 68.45 50.75 62.55 48.45C58.4382 46.8613 52.4052 43.7881 50.082 42.2498C49.7913 42.0573 49.5419 41.8059 49.3914 41.4914C49.1275 40.9398 48.95 40.2653 48.95 39.65C48.95 37.95 50.05 36.35 51.85 36.35C52.4664 36.35 53.0828 36.505 53.7674 36.7469C53.956 36.8135 54.135 36.9035 54.3053 37.0083C57.4769 38.9602 61.6712 40.9895 66.15 42.45C70.45 43.85 76.45 44.75 78.75 44.75V44.75C80.2777 44.75 81.9398 45.4062 82.1489 46.9194C82.2125 47.3792 82.25 47.8599 82.25 48.35C82.25 51.15 79.75 52.25 76.65 52.25ZM72.85 59.95C66.75 59.95 64.65 58.35 61.05 56.35C58.7805 55.0891 56.5816 53.4043 55.2849 52.0083C54.8516 51.5419 54.6649 50.8823 54.8902 50.2869V50.2869C55.277 49.2647 56.5082 49.0826 57.4985 49.5448C58.9596 50.2266 60.3869 50.8411 61.55 51.35C65.25 52.85 70.25 55.35 75.75 55.35H75.8355C76.2121 55.35 76.55 55.5734 76.55 55.95V55.95C76.55 57.45 76.05 59.95 72.85 59.95Z" fill="#C3FF44"/>
<path d="M63.25 65.75C73.85 65.75 79.55 62.85 79.55 56.85C79.55 55.35 79.65 55.15 80.55 54.85C83.75 53.75 85.45 51.35 85.45 47.95C85.45 46.05 84.45 44.55 84.45 43.45C84.45 42.75 84.95 42.35 85.85 41.95C88.75 40.65 90.15 38.75 90.15 35.55C90.15 35.2767 90.1448 35.0125 90.1339 34.7564C90.0339 32.4194 91.5356 29.5352 93.8726 29.437C95.1437 29.3836 96.4385 29.35 97.75 29.35C101.95 29.35 106.65 29.65 108.95 29.65C115.45 29.65 118.75 27.45 118.75 22.75C118.75 17.95 115.25 15.65 107.05 14.65C102.95 14.15 97.15 13.45 92.55 12.95C89.9448 12.6805 87.3396 12.4917 84.7344 12.3111C84.1572 12.2711 83.6099 12.0544 83.1101 11.7627C82.3921 11.3436 81.5211 10.9677 80.65 10.75C78.85 10.25 75.35 9.24998 70.95 7.44998C66.75 5.74998 61.15 4.84998 54.25 4.84998C48.25 4.84998 44.25 6.44998 38.05 11.35C32.35 15.85 31.05 16.05 27.55 16.05C26.3583 16.05 24.0017 15.8836 22.7526 15.8399C22.2257 15.8215 21.7597 16.0513 21.4438 16.4734C18.6132 20.2556 16.65 27.9651 16.65 35.05C16.65 44.1518 18.1715 50.8024 21.2144 54.7686C21.7158 55.4222 22.5166 55.75 23.3404 55.75H28.3413C28.9958 55.75 29.6296 55.9674 30.1626 56.3473C39.2571 62.8291 52.5726 65.75 63.25 65.75ZM63.25 62.35C50.9354 62.35 38.8059 58.6476 31.403 52.8457C30.8431 52.4068 30.1594 52.15 29.448 52.15H25.3426C24.3467 52.15 23.397 51.6646 22.9445 50.7774C21.1706 47.2993 20.25 42.0568 20.25 35.05C20.25 30.1016 21.3419 24.7893 22.9045 21.1624C23.366 20.0913 24.4929 19.5177 25.6572 19.5837C26.3564 19.6233 27.0333 19.65 27.55 19.65C32.05 19.65 34.35 18.95 40.25 14.25C45.85 9.74998 49.05 8.44998 54.25 8.44998C60.65 8.44998 65.85 9.24998 69.55 10.75C74.15 12.65 77.95 13.75 79.75 14.25C80.7953 14.5351 82.0212 15.2716 82.1406 15.6016C82.1499 15.6276 82.1724 15.65 82.2 15.65V15.65C82.2276 15.65 82.25 15.6724 82.25 15.7V16.65C82.25 20.35 79.65 22.05 76.95 22.05C73.6082 22.05 65.8818 20.7213 62.4886 19.5259C61.5792 19.2056 60.3729 19.2629 59.6523 19.9035V19.9035C58.8916 20.5797 58.9036 21.72 59.8217 22.1596C60.2111 22.3461 60.6509 22.53 61.1327 22.7063C61.9936 23.0213 62.3738 24.0695 61.8454 24.8186V24.8186C61.4766 25.3412 60.8351 25.4891 60.2304 25.2806C59.0047 24.858 57.8274 24.55 56.65 24.55C52.55 24.55 50.35 27.45 50.35 30.85V30.85C50.35 32.3646 49.3469 33.8808 48.0967 34.7358C47.6279 35.0564 47.2133 35.4443 46.8619 35.8873C46.4895 36.3567 46.0683 36.8059 45.5077 37.0172C43.8728 37.6336 41.9278 37.85 39.55 37.85C38.898 37.85 38.0447 37.8248 37.2173 37.7619C36.1163 37.6781 35.05 38.5383 35.05 39.6425V39.6425C35.05 40.4109 35.5728 41.0857 36.3321 41.2034C37.3249 41.3573 38.4606 41.45 39.55 41.45C40.6694 41.45 41.7177 41.4026 42.7064 41.2848C44.228 41.1035 45.7301 42.2897 46.6461 43.518V43.518C46.7355 43.6379 46.8072 43.6978 46.9253 43.7896C47.5192 44.251 48.3686 44.8039 49.3789 45.4011C50.9659 46.3393 51.25 48.6064 51.25 50.45V50.45C51.25 51.0182 51.3159 51.6523 51.4477 52.1384C51.5048 52.3489 51.61 52.5413 51.7395 52.7169C53.3235 54.8654 56.6103 57.4341 60.45 59.45C61.6008 60.0439 62.6138 60.5276 63.5145 60.9267C64.1537 61.2098 63.9491 62.35 63.25 62.35V62.35ZM12.45 59.05H19.95C21.45 59.05 21.95 58.15 21.95 57.05V57.05C21.95 56.8593 21.675 56.78 21.5423 56.9169C21.2526 57.2156 20.9185 57.35 20.45 57.35C15.15 57.35 13.35 44.95 13.35 35.75C13.35 26.75 14.85 14.25 20.45 14.25C21.0866 14.25 21.3924 14.3327 21.8187 14.799C21.8644 14.849 21.95 14.8177 21.95 14.75V14.75C21.95 13.25 21.15 12.35 19.95 12.35L12.45 12.35C6.05002 12.35 4.15002 26.65 4.15002 35.75C4.15002 44.95 5.95002 59.05 12.45 59.05ZM76.2421 27.5374C75.0522 28.4593 73.6342 29.4901 72.1612 29.1804C68.4943 28.4094 66.1551 27.4464 64.7577 26.9527C64.7525 26.9508 64.7472 26.95 64.7416 26.95V26.95C64.7025 26.95 64.6791 26.9063 64.7008 26.8738C65.1083 26.2625 65.5144 25.6499 65.8879 25.0047C66.1735 24.5113 66.741 24.2414 67.2984 24.3613C70.9312 25.1427 74.7593 25.65 77.15 25.65C81.75 25.65 85.75 22.35 85.75 16.55V16.55C85.75 16.2811 85.9804 16.0701 86.2483 16.092C88.3668 16.265 90.3805 16.3645 92.05 16.55C97.05 17.05 102.55 17.65 106.55 18.25C113.05 19.25 115.15 20.25 115.15 22.75C115.15 25.05 113.75 26.05 108.95 26.05C106.75 26.05 102.05 25.75 97.75 25.75C93.9806 25.75 89.277 26.1236 85.3547 26.3292C85.086 26.3433 84.8175 26.3178 84.5528 26.2698C83.7453 26.1232 82.7907 26.05 81.25 26.05C79.3859 26.05 77.5219 26.5458 76.2421 27.5374ZM78.25 41.15C75.65 41.15 70.55 40.45 66.65 39.05C60.8812 37.0087 57.2391 34.8887 55.1645 33.3889C54.6905 33.0463 54.3367 32.5593 54.1624 32.001C54.0068 31.5028 53.85 30.898 53.85 30.45C53.85 28.55 55.35 27.95 56.45 27.85C58.65 27.55 61.35 29.45 63.85 30.25C66.8695 31.3925 69.8223 32.4684 74.339 33.2059C76.0996 33.4934 77.3867 31.7838 78.7127 30.5904C79.4659 29.9126 80.6815 29.55 82.55 29.55C82.8467 29.55 83.1787 29.55 83.5458 29.5709C84.0744 29.601 84.5842 29.8092 84.9437 30.1978C86.315 31.68 86.55 33.7258 86.55 35.85C86.55 37.25 86.15 37.55 83.95 38.95C81.35 40.55 79.85 41.15 78.25 41.15ZM76.65 52.25C72.85 52.25 68.45 50.75 62.55 48.45C58.4382 46.8613 52.4052 43.7881 50.082 42.2498C49.7913 42.0573 49.5419 41.8059 49.3914 41.4914C49.1275 40.9398 48.95 40.2653 48.95 39.65C48.95 37.95 50.05 36.35 51.85 36.35C52.4664 36.35 53.0828 36.505 53.7674 36.7469C53.956 36.8135 54.135 36.9035 54.3053 37.0083C57.4769 38.9602 61.6712 40.9895 66.15 42.45C70.45 43.85 76.45 44.75 78.75 44.75V44.75C80.2777 44.75 81.9398 45.4062 82.1489 46.9194C82.2125 47.3792 82.25 47.8599 82.25 48.35C82.25 51.15 79.75 52.25 76.65 52.25ZM72.85 59.95C66.75 59.95 64.65 58.35 61.05 56.35C58.7805 55.0891 56.5816 53.4043 55.2849 52.0083C54.8516 51.5419 54.6649 50.8823 54.8902 50.2869V50.2869C55.277 49.2647 56.5082 49.0826 57.4985 49.5448C58.9596 50.2266 60.3869 50.8411 61.55 51.35C65.25 52.85 70.25 55.35 75.75 55.35H75.8355C76.2121 55.35 76.55 55.5734 76.55 55.95V55.95C76.55 57.45 76.05 59.95 72.85 59.95Z" stroke="black" stroke-width="8" mask="url(#path-1-outside-1_39_26)"/>
</svg>
