<svg width="92" height="96" viewBox="0 0 92 96" fill="none" xmlns="http://www.w3.org/2000/svg">
<path d="M12.6832 75.5868L12.7086 75.612L12.7349 75.6363C14.6613 77.415 16.877 78.5927 19.3618 79.1209L35.6687 82.587C37.2894 82.9315 38.8824 81.8969 39.2269 80.2763L40.6927 73.3804C40.6863 73.6588 40.7186 73.9396 40.7913 74.2151L45.2598 91.141C45.5488 92.2356 46.4293 93.0743 47.5367 93.3096L50.2779 93.8923C51.8986 94.2368 53.4916 93.2022 53.8361 91.5816L54.88 86.6705L59.8377 87.7243C62.2388 88.2347 64.6546 88.034 67.0424 87.1678C69.5168 86.3255 71.6197 84.9306 73.3124 82.9908L85.3335 69.6062L85.3701 69.5654L85.4044 69.5227C86.1599 68.5827 86.8199 67.5706 87.3847 66.4887C88.1005 65.2673 88.6084 63.9808 88.8947 62.6339C89.1404 61.4783 89.267 60.3655 89.2568 59.303C89.2666 58.1134 89.0829 56.9671 88.6891 55.8803L83.7232 39.9741C83.222 38.3687 81.4992 37.4889 79.9048 38.0241L64.9522 43.0436C63.3918 43.5675 62.5448 45.2508 63.0542 46.816L69.9621 68.045L59.3198 65.783L60.3636 60.8718C60.7081 59.2512 59.6736 57.6581 58.0529 57.3137L55.3141 56.7315C54.203 56.4953 53.0539 56.9069 52.3454 57.7948L41.347 71.5782C41.1715 71.798 41.03 72.0387 40.924 72.2923L42.4192 65.2577C42.7637 63.637 41.7292 62.044 40.1085 61.6995L18.0709 57.0152L25.1953 48.9177L29.0166 52.3602C30.2445 53.4663 32.1356 53.3711 33.2462 52.1473L35.1103 50.0932C35.8738 49.2518 36.0965 48.0513 35.6856 46.992L29.2838 30.491C28.9385 29.601 28.1902 28.9284 27.2685 28.6797L10.1222 24.0533C9.03528 23.76 7.87567 24.1 7.11911 24.9336L5.25992 26.9823C4.13838 28.2182 4.24102 30.1318 5.48833 31.2406L9.19255 34.5334L5.96001 38.1833L5.95453 38.1895C5.19566 39.0536 4.53635 39.9945 3.9771 41.0095L3.94166 41.0739L3.91103 41.1406C3.47071 42.1002 3.13856 43.1248 2.90834 44.2079C2.61335 45.5957 2.49486 46.9483 2.57259 48.2576L2.57752 48.3407L2.58934 48.4231C2.76643 49.6577 3.04723 50.9046 3.42827 52.1631L3.43076 52.1713L3.43332 52.1795L8.71485 69.0967C8.71537 69.0984 8.71588 69.1001 8.7164 69.1018C9.4702 71.5572 10.8048 73.7234 12.6832 75.5868ZM33.603 7.35837L33.603 7.35834L33.5954 7.36678L22.4459 19.7557C21.3285 20.9973 21.4404 22.9124 22.6947 24.0154L34.3807 34.2918C35.6189 35.3807 37.5039 35.2662 38.6012 34.0353L53.6106 17.1982L57.0081 27.6635L52.3 29.1602C50.7095 29.6658 49.8374 31.3722 50.3593 32.9574L51.2226 35.5795C51.5776 36.6577 52.5108 37.4432 53.6338 37.6091L70.9303 40.1639C71.8476 40.2994 72.7761 40.0031 73.4453 39.3612L86.2379 27.0916C87.0937 26.2707 87.3857 25.0228 86.9829 23.9074L86.0193 21.2393C85.4656 19.7063 83.7892 18.8958 82.2438 19.414L77.446 21.023L75.8828 16.3747C75.1772 13.9496 73.7315 11.9292 71.6443 10.3288C69.6997 8.67576 67.4561 7.57767 64.9429 7.04347L47.3698 3.30818C44.9261 2.78876 42.4308 2.89246 39.9128 3.5841C37.429 4.22269 35.3088 5.48442 33.603 7.35837Z" fill="#FDF65D" stroke="black" stroke-width="4"/>
</svg>
