<svg width="112" height="115" viewBox="0 0 112 115" fill="none" xmlns="http://www.w3.org/2000/svg">
<path d="M51.9766 109.99L51.9836 109.977L51.9904 109.965L65.3132 86.1231L92.0485 62.3433C92.2963 62.5106 92.567 62.6808 92.8621 62.8511C97.9702 65.8003 104.351 64.2829 107.599 58.6564C110.565 53.5199 108.646 47.1517 103.494 44.1772C100.903 42.681 98.0677 42.3105 95.4874 42.939C96.133 42.3025 96.7032 41.5742 97.1739 40.7589C100.062 35.7562 98.6592 29.0617 93.3738 26.0102C88.3492 23.1093 81.6441 24.4786 78.5413 29.8528C76.6058 33.2053 76.4761 37.1746 78.4235 40.5173L57.5659 59.0666L69.3229 31.4495C73.5458 32.2151 78.0821 30.3709 80.4787 26.2199C83.5629 20.8778 81.56 14.4381 76.5022 11.5179C71.2989 8.51378 64.7827 10.2275 61.7817 15.4252C59.3852 19.5762 60.0562 24.4269 62.8306 27.7012L44.7921 51.6916L50.4274 24.3538C54.296 24.3689 57.6687 22.2719 59.6042 18.9195C62.707 13.5453 60.5404 7.05378 55.5158 4.15285C50.2304 1.1013 43.7313 3.23351 40.843 8.23619C40.3724 9.05136 40.0248 9.90096 39.7918 10.765C39.0424 8.22503 37.3066 5.96378 34.7225 4.47186C29.6994 1.57174 23.1056 3.00365 20.1306 8.15644C16.966 13.6378 18.6131 19.9834 23.8664 23.0165C24.1616 23.1869 24.4443 23.3362 24.7131 23.4671L17.4868 58.5105L3.50028 81.9694L3.4931 81.9815L3.48608 81.9936C2.51608 83.6737 2.61364 85.5339 3.33652 87.2978C4.03635 89.0054 5.3661 90.7638 7.14106 92.5662C10.6972 96.1773 15.9618 100.118 23.0022 104.183C30.0144 108.231 36.0027 110.942 40.9287 112.222C43.3982 112.863 45.6095 113.105 47.4595 112.822C49.3566 112.532 51.0148 111.656 51.9766 109.99ZM88.7737 48.0845C87.3839 50.4916 86.9222 53.7057 87.6982 56.4797L68.1869 67.3829L83.9828 45.4041C86.0855 46.2054 88.4177 46.2814 90.5909 45.7068C89.9053 46.3915 89.2926 47.1858 88.7737 48.0845ZM39.8319 16.4764C40.4311 18.627 41.6742 20.579 43.4145 21.9853L32.2795 46.6517L31.9662 24.3028C34.7566 23.5878 37.3092 21.581 38.6989 19.1738C39.2058 18.296 39.5816 17.3904 39.8319 16.4764Z" fill="#8FFDC8" stroke="black" stroke-width="4"/>
</svg>
