<svg width="102" height="102" viewBox="0 0 102 102" fill="none" xmlns="http://www.w3.org/2000/svg">
<path d="M59.4961 30.4887L53.9307 5.03991C53.2429 1.89444 48.7571 1.89448 48.0693 5.03991L42.5039 30.4887L20.5737 16.429C17.8631 14.6912 14.6912 17.8631 16.429 20.5737L30.4887 42.5039L5.03991 48.0693C1.89444 48.7571 1.89448 53.2429 5.03991 53.9307L30.4887 59.4961L16.429 81.4263C14.6912 84.1369 17.8631 87.3088 20.5737 85.571L42.5039 71.5113L48.0693 96.9601C48.7571 100.106 53.2429 100.106 53.9307 96.9601L59.4961 71.5113L81.4263 85.571C84.1369 87.3088 87.3088 84.1369 85.571 81.4263L71.5113 59.4961L96.9601 53.9307C100.106 53.2429 100.106 48.7571 96.9601 48.0693L71.5113 42.5039L85.571 20.5737C87.3088 17.8631 84.1369 14.6912 81.4263 16.429L59.4961 30.4887Z" fill="#A55FFE" stroke="black" stroke-width="4"/>
</svg>
