<svg width="95" height="92" viewBox="0 0 95 92" fill="none" xmlns="http://www.w3.org/2000/svg">
<path d="M35.0831 89.2818L35.1182 89.2891L35.1535 89.2951C37.7378 89.7377 40.2375 89.5186 42.6091 88.6083L58.173 82.6338C59.7198 82.0401 60.4924 80.3048 59.8986 78.758L57.3722 72.1763C57.5184 72.4132 57.6985 72.6312 57.9095 72.8226L70.8756 84.5841C71.7141 85.3447 72.9094 85.5685 73.9663 85.1628L76.5826 84.1585C78.1294 83.5648 78.902 81.8295 78.3082 80.2827L76.5089 75.5953L81.2408 73.7789C83.5325 72.8992 85.4492 71.4152 86.98 69.3883C88.5965 67.3342 89.6005 65.019 89.9636 62.4703L92.7555 44.6979L92.764 44.6437L92.7695 44.5892C92.8912 43.3894 92.8935 42.181 92.7778 40.9661C92.713 39.5519 92.4383 38.1964 91.9449 36.9108C91.5215 35.8078 91.0216 34.8056 90.4344 33.92C89.7947 32.917 89.0163 32.0557 88.0941 31.3588L75.2663 20.7233C73.9716 19.6499 72.0475 19.8503 71.0018 21.1676L61.1953 33.5211C60.1719 34.8102 60.3784 36.6832 61.658 37.7185L79.0137 51.7604L68.8563 55.6595L67.057 50.9721C66.4632 49.4253 64.7279 48.6527 63.1811 49.2465L60.567 50.25C59.5066 50.657 58.767 51.6281 58.6564 52.7586L56.9393 70.3084C56.9119 70.5884 56.9243 70.8673 56.9735 71.1378L54.3962 64.4236C53.8024 62.8768 52.0672 62.1042 50.5204 62.698L29.4868 70.772L31.0517 60.1006L36.1314 60.9065C37.7635 61.1654 39.2977 60.0556 39.5626 58.4244L40.0072 55.6864C40.1894 54.5649 39.7223 53.4367 38.8007 52.7722L24.4447 42.4199C23.6703 41.8615 22.6764 41.7051 21.7679 41.9985L4.86813 47.457C3.79684 47.803 3.00945 48.7197 2.82899 49.8309L2.38555 52.5616C2.11804 54.209 3.24633 55.7579 4.89631 56.0085L9.79636 56.7527L9.07317 61.5743L9.07197 61.5825C8.90612 62.7204 8.86565 63.8687 8.94944 65.0245L8.95475 65.0978L8.96542 65.1704C9.11879 66.2151 9.39824 67.2552 9.79506 68.289C10.3035 69.6136 10.9408 70.8125 11.7191 71.8682L11.7685 71.9352L11.8233 71.9979C12.6442 72.9368 13.5588 73.8297 14.5638 74.6776L14.5704 74.6831L14.577 74.6886L28.2202 86.0001C28.2216 86.0012 28.2229 86.0023 28.2243 86.0035C30.1938 87.6522 32.4929 88.7421 35.0831 89.2818ZM15.4681 20.6669L15.468 20.6669L15.4663 20.6781L12.863 37.1408C12.6021 38.7906 13.739 40.3358 15.3917 40.5777L30.7893 42.8316C32.4209 43.0704 33.9393 41.9477 34.1892 40.3178L37.607 18.0224L46.1562 24.9488L43.0228 28.7683C41.9643 30.0586 42.1623 31.9647 43.4634 33.0099L45.6155 34.7387C46.5004 35.4497 47.7109 35.6002 48.7431 35.1277L64.6406 27.85C65.4837 27.464 66.1009 26.7098 66.3126 25.807L70.3589 8.54954C70.6296 7.395 70.1948 6.18935 69.2495 5.47333L66.9882 3.76046C65.6889 2.77628 63.8415 3.0096 62.8277 4.28593L59.6802 8.2484L55.8376 5.20135C53.925 3.55177 51.6121 2.64474 48.99 2.43929C46.4588 2.11204 43.9791 2.41306 41.5804 3.33383L24.808 9.77218C22.4756 10.6675 20.4394 12.1135 18.7043 14.0649C16.9691 15.9533 15.8781 18.1662 15.4681 20.6669Z" fill="#C3FF44" stroke="black" stroke-width="4"/>
</svg>
