<svg width="110" height="110" viewBox="0 0 110 110" fill="none" xmlns="http://www.w3.org/2000/svg">
<path d="M72.625 37.2303L77.3144 6.45689C77.7994 3.27388 73.6117 1.66627 71.8422 4.35632L54.7357 30.3633L36.2915 5.28725C34.3837 2.69355 30.2858 4.51799 30.9368 7.67132L37.2303 38.1572L6.45686 33.4678C3.27385 32.9827 1.66624 37.1705 4.35629 38.9399L30.3633 56.0465L5.28722 74.4907C2.69352 76.3984 4.51797 80.4964 7.67129 79.8454L38.1572 73.5518L33.4677 104.325C32.9827 107.508 37.1705 109.116 38.9399 106.426L56.0464 80.4189L74.4906 105.495C76.3984 108.089 80.4963 106.264 79.8454 103.111L73.5518 72.625L104.325 77.3144C107.508 77.7995 109.116 73.6117 106.426 71.8423L80.4189 54.7357L105.495 36.2915C108.089 34.3838 106.264 30.2858 103.111 30.9368L72.625 37.2303Z" fill="#75EDED" stroke="black" stroke-width="4"/>
</svg>
