<svg width="114" height="134" viewBox="0 0 114 134" fill="none" xmlns="http://www.w3.org/2000/svg">
<path d="M18.6781 130.047C26.9662 122.651 33.9245 113.593 36.331 101.975C40.7003 103.42 44.9326 103.835 48.9605 103.304C54.6639 102.55 59.6106 99.9456 63.7004 96.3038C71.7695 89.1187 76.7812 77.692 78.5794 66.6553C78.8548 64.9648 79.102 62.8742 79.2862 60.5368C81.7311 60.8977 84.2434 60.8883 86.7363 60.37C99.9997 57.6124 107.676 48.4326 110.554 37.5954C113.375 26.9726 111.657 14.7086 106.547 4.67974C105.419 2.46534 102.709 1.58488 100.495 2.71317C98.2802 3.84146 97.3998 6.55125 98.5281 8.76566C102.752 17.0552 104.043 27.0485 101.855 35.2854C99.7258 43.305 94.3783 49.5887 84.9044 51.5584C83.296 51.8928 81.5139 51.8568 79.6191 51.4571C79.5993 47.1977 79.3238 42.7121 78.6419 38.5866C77.8461 33.7723 76.3886 28.7249 73.5333 25.2542C72.0304 23.4274 70.0245 21.9003 67.4463 21.2457L66.9565 23.175L67.4463 21.2457C64.8708 20.5919 62.2117 20.9326 59.6204 21.9693C56.9696 23.0298 54.804 24.6912 53.393 26.982C51.9889 29.2615 51.5591 31.795 51.7291 34.2198C52.0573 38.9014 54.625 43.6475 57.877 47.574C61.1788 51.5605 65.5965 55.2071 70.4607 57.6526C70.2931 60.6465 70.0108 63.2789 69.6965 65.208C68.118 74.8968 63.7898 84.1733 57.7153 89.5823C54.7337 92.2372 51.4079 93.9023 47.7824 94.381C44.7861 94.7766 41.3439 94.3944 37.4317 92.7908C38.1076 82.8352 37.6445 70.4299 33.1771 61.0607C31.708 57.9797 28.2856 52.4679 23.8237 49.0012C21.5758 47.2546 18.5668 45.6413 15.0723 45.7184C11.3438 45.8007 8.11482 47.7693 5.56108 51.0856C2.51271 55.0443 2.25293 59.9795 3.14124 64.4757C4.03654 69.0074 6.20215 73.7439 8.94527 78.154C13.7456 85.8715 20.8477 93.4275 27.8991 97.9416C26.4991 108.021 20.7481 116.138 12.686 123.332C10.8316 124.986 10.6698 127.831 12.3245 129.685C13.9792 131.54 16.8238 131.702 18.6781 130.047ZM69.7624 40.0544C70.1336 42.3002 70.3696 44.7123 70.4981 47.1559C68.3598 45.6 66.4092 43.766 64.8084 41.8332C62.1543 38.6286 60.8504 35.6351 60.7071 33.5903C60.6414 32.6543 60.8246 32.0776 61.0559 31.7021C61.2802 31.338 61.7705 30.8027 62.9635 30.3254C64.2156 29.8244 64.9025 29.8855 65.2317 29.969C65.5586 30.052 66.0126 30.2787 66.5831 30.9721C67.8774 32.5453 69.0297 35.622 69.7624 40.0544ZM25.0533 64.9342C27.9395 70.9873 28.8179 79.2852 28.6641 87.3391C24.2311 83.6369 19.8344 78.6205 16.5875 73.4005C14.189 69.5444 12.5848 65.8401 11.9706 62.7313C11.3506 59.5935 11.8377 57.6859 12.6919 56.5767C14.0326 54.8356 14.9228 54.7239 15.2709 54.7162C15.8478 54.7035 16.8575 54.9859 18.3019 56.1081C21.2292 58.3825 23.9013 62.5182 25.0533 64.9342Z" fill="#86AAA8" stroke="black" stroke-width="4" stroke-linecap="round"/>
</svg>
