<svg width="111" height="115" viewBox="0 0 111 115" fill="none" xmlns="http://www.w3.org/2000/svg">
<path d="M107.766 81.6432L107.759 81.6311L107.752 81.619L93.7654 58.1601L86.5391 23.1167C86.8079 22.9858 87.0906 22.8365 87.3858 22.6661C92.4939 19.7169 94.37 13.4325 91.1216 7.80604C88.156 2.66945 81.6818 1.14691 76.5297 4.12146C73.9382 5.61766 72.1998 7.88761 71.454 10.4365C71.2255 9.55905 70.8799 8.70116 70.4092 7.88578C67.5209 2.8831 61.0218 0.750904 55.7364 3.80245C50.7118 6.70338 48.5452 13.1949 51.648 18.5691C53.5835 21.9215 56.9562 24.0185 60.8248 24.0034L66.4601 51.3412L48.4216 27.3508C51.196 24.0765 51.867 19.2258 49.4705 15.0748C46.3862 9.7327 39.8077 8.24744 34.75 11.1676C29.5466 14.1717 27.7726 20.6718 30.7735 25.8695C33.1701 30.0205 37.7064 31.8647 41.9293 31.0991L53.6863 58.7162L32.8287 40.1669C34.7761 36.8242 34.6464 32.8549 32.7109 29.5024C29.6081 24.1282 22.903 22.7589 17.8784 25.6598C12.593 28.7113 11.19 35.4058 14.0783 40.4085C14.5489 41.2236 15.1109 41.9495 15.7427 42.5832C13.1683 41.9623 10.3421 42.3349 7.75803 43.8268C2.73486 46.7269 0.678049 53.1532 3.65302 58.306C6.81767 63.7874 13.1367 65.5338 18.3901 62.5007C18.6852 62.3304 18.9559 62.1602 19.2037 61.9929L45.939 85.7727L59.2618 109.615L59.2686 109.627L59.2756 109.639C60.2456 111.319 61.9053 112.165 63.7943 112.421C65.6231 112.669 67.8108 112.396 70.2592 111.76C75.1646 110.486 81.2095 107.897 88.25 103.832C95.2621 99.7838 100.604 95.9534 104.175 92.3271C105.966 90.5092 107.28 88.7149 107.96 86.9714C108.658 85.1834 108.728 83.3091 107.766 81.6432ZM72.5533 18.8234C73.943 21.2306 76.4956 23.2374 79.286 23.9524L78.9727 46.3013L67.8365 21.6323C69.5818 20.2119 70.8137 18.2302 71.4027 16.0608C71.6528 16.9969 72.0344 17.9247 72.5533 18.8234ZM20.7089 45.4042C22.871 45.9606 25.1831 45.8601 27.2711 45.056L43.0653 67.0325L23.554 56.1293C24.33 53.3553 23.8683 50.1412 22.4785 47.7341C21.9717 46.8562 21.3753 46.078 20.7089 45.4042Z" fill="#F99D49" stroke="black" stroke-width="4"/>
</svg>
