<svg width="121" height="119" viewBox="0 0 121 119" fill="none" xmlns="http://www.w3.org/2000/svg">
<path d="M3.43663 9.13761C9.60689 18.3743 17.6084 26.5255 28.7789 30.5256C26.7396 34.6513 25.7393 38.7845 25.7053 42.8472C25.6573 48.5999 27.5484 53.861 30.5855 58.4178C36.5777 67.4084 47.1957 73.9616 57.8747 77.2783C59.5104 77.7864 61.5463 78.322 63.8353 78.8298C63.1377 81.2007 62.7973 83.6898 62.9637 86.2306C63.8485 99.7487 71.8706 108.628 82.2018 112.986C92.3287 117.258 104.712 117.264 115.355 113.599C117.705 112.79 118.954 110.229 118.145 107.879C117.335 105.529 114.775 104.28 112.425 105.09C103.628 108.118 93.5522 108.006 85.6999 104.694C78.0548 101.469 72.5765 95.2987 71.9444 85.6428C71.8371 84.0035 72.1208 82.2438 72.7804 80.4231C77.001 80.9963 81.4814 81.3478 85.6616 81.2466C90.5398 81.1285 95.7409 80.3878 99.5752 78.0432C101.593 76.8092 103.385 75.0354 104.392 72.5733L102.549 71.8198L104.392 72.5733C105.398 70.1139 105.43 67.4333 104.764 64.7229C104.083 61.9503 102.739 59.5746 100.667 57.8585C98.6053 56.1508 96.1563 55.3726 93.7314 55.2035C89.0496 54.877 83.9924 56.7591 79.6516 59.4331C75.2443 62.1479 71.0183 66.0151 67.9197 70.4915C64.9783 69.909 62.4108 69.2631 60.5442 68.6833C51.1694 65.7717 42.5855 60.1947 38.0745 53.4264C35.8604 50.1044 34.6745 46.5792 34.705 42.9224C34.7302 39.9002 35.5878 36.5447 37.7203 32.8937C47.4849 34.9485 59.8339 36.2164 69.7337 33.0965C72.9891 32.0705 78.9236 29.4485 82.9776 25.5125C85.02 23.5295 87.0364 20.7744 87.4464 17.3032C87.8838 13.5994 86.3837 10.1279 83.455 7.13749C79.9591 3.56785 75.1081 2.62374 70.532 2.87765C65.9199 3.13357 60.9281 4.6189 56.1791 6.72156C47.8687 10.4011 39.3977 16.3825 33.9463 22.737C24.1598 19.9479 16.9225 13.1232 10.9204 4.13832C9.53991 2.07172 6.74547 1.51555 4.67889 2.89607C2.6123 4.27658 2.05612 7.07102 3.43663 9.13761ZM85.4438 72.2492C83.1682 72.3043 80.7468 72.2023 78.309 71.9895C80.1474 70.0885 82.235 68.4122 84.3718 67.0959C87.9146 64.9136 91.0605 64.0391 93.1053 64.1817C94.0413 64.247 94.5869 64.5086 94.9266 64.7899C95.2559 65.0627 95.7178 65.6227 96.0244 66.8705C96.3462 68.1802 96.1902 68.8519 96.0616 69.1663C95.9339 69.4784 95.6463 69.8965 94.8802 70.3649C93.1422 71.4276 89.9351 72.1405 85.4438 72.2492ZM67.0285 24.5126C60.6326 26.5283 52.2932 26.2434 44.3391 24.9702C48.6222 21.0955 54.2017 17.4398 59.8228 14.951C63.9752 13.1125 67.8667 12.0394 71.0306 11.8638C74.2242 11.6866 76.0454 12.4344 77.025 13.4347C78.5626 15.0047 78.5493 15.9018 78.5085 16.2475C78.4408 16.8206 78.0206 17.7811 76.7082 19.0553C74.0486 21.6376 69.5813 23.7081 67.0285 24.5126Z" fill="#8583FA" stroke="black" stroke-width="4" stroke-linecap="round"/>
</svg>
